<svg height="44.687mm" viewBox="0 0 61.111 44.687" width="61.111mm" xmlns="http://www.w3.org/2000/svg"><g fill-opacity="0" stroke-linecap="round" stroke-linejoin="round"><g stroke="#006464" stroke-width="60"><g transform="matrix(.00254 0 0 .00254 -222.76 -48.76)"><g fill="none" stroke="#840000"><path d="m100700 21000 300-500"/><path d="m101000 21500v-1000"/><path d="m101000 20500 300 500"/></g><g fill="#006464" stroke="#006464"><text font-size="666.65" lengthAdjust="spacingAndGlyphs" opacity="0" text-anchor="middle" textLength="1583.8188" x="101000" y="19749.961">+5V</text><path d="m100357 19535h381"/><path d="m100547 19726v-381"/><path d="m101214 19226h-238l-24 238 24-24 47-24h119l48 24 24 24 24 47v119l-24 48-24 24-48 24h-119l-47-24-24-24"/><path d="m101380 19226 167 500 167-500"/></g><path d="m101000 34500v500h500l-500 500-500-500h500" fill="none" stroke="#840000" stroke-linecap="round" stroke-linejoin="round" stroke-width="60"/><g fill="#006464" stroke="#006464"><text font-size="666.65" lengthAdjust="spacingAndGlyphs" opacity="0" text-anchor="middle" textLength="1583.8188" x="101000" y="36749.96100000001">GND</text><path d="m100619 36249-48-23h-71l-72 23-48 48-23 48-24 95v71l24 96 23 47 48 48 72 24h47l72-24 23-24v-167h-95"/><path d="m100857 36726v-500l285 500v-500"/><path d="m101380 36726v-500h120l71 23 48 48 23 48 24 95v71l-24 96-23 47-48 48-71 24z"/></g></g><path d="m21.08 9.66h25.4v25.4h-25.4z" fill="#ffffc2" fill-opacity=".6" stroke="#ffffc2" stroke-width=".0000999998"/><g fill-opacity="0"><g fill="#840000" stroke="#840000" stroke-width=".254"><path d="m21.08 9.66h25.4v25.4h-25.4z"/><path d="m21.08 9.66h25.4v25.4h-25.4z"/></g><g stroke-width="60" transform="matrix(.00254 0 0 .00254 -222.76 -48.76)"><path d="m96000 30000h-1000" fill="#840000" stroke="#840000"/><g fill="#006464" stroke="#006464"><text font-size="666.65" lengthAdjust="spacingAndGlyphs" opacity="0" textLength="4321.8896" x="96200" y="30250">~{RESET}/PB5</text><path d="m96230 29585h500"/><path d="m96634 30226-166-238"/><path d="m96349 30226v-500h190l48 24 23 23 24 48v71l-24 48-23 24-48 24h-190"/><path d="m96730 29585h452"/><path d="m96849 29964h166"/><path d="m97087 30226h-238v-500h238"/><path d="m97182 29585h476"/><path d="m97277 30202 72 24h119l47-24 24-24 24-48v-47l-24-48-24-24-47-23-96-24-47-24-24-24-24-47v-48l24-48 24-23 47-24h119l72 24"/><path d="m97658 29585h452"/><path d="m97777 29964h167"/><path d="m98015 30226h-238v-500h238"/><path d="m98110 29585h381"/><path d="m98158 29726h286"/><path d="m98301 30226v-500"/><path d="m98968 29702-429 643"/><path d="m99134 30226v-500h191l47 24 24 23 24 48v71l-24 48-24 24-47 24h-191"/><path d="m99801 29964 71 24 24 23 24 48v71l-24 48-24 24-47 24h-191v-500h167l48 24 23 23 24 48v48l-24 47-23 24-48 24h-167"/><path d="m100372 29726h-238l-24 238 24-24 48-24h119l48 24 23 24 24 47v119l-24 48-23 24-48 24h-119l-48-24-24-24"/></g><g fill="#a90000" stroke="#a90000"><text font-size="666.65" lengthAdjust="spacingAndGlyphs" opacity="0" text-anchor="middle" textLength="536.18109" x="95500" y="29900">1</text><path d="m95642 29876h-285"/><path d="m95500 29876v-500l-48 71-48 48-47 24"/></g><path d="m96000 28000h-1000" fill="#840000" stroke="#840000"/><g fill="#006464" stroke="#006464"><text font-size="666.65" lengthAdjust="spacingAndGlyphs" opacity="0" textLength="4226.6533" x="96200" y="28250">XTAL1/PB3</text><path d="m96301 27726 333 500"/><path d="m96634 27726-333 500"/><path d="m96753 27726h286"/><path d="m96896 28226v-500"/><path d="m97182 28083h238"/><path d="m97134 28226 167-500 167 500"/><path d="m97872 28226h-238v-500"/><path d="m98301 28226h-286"/><path d="m98158 28226v-500l-48 71-47 48-48 24"/><path d="m98872 27702-428 643"/><path d="m99039 28226v-500h191l47 24 24 23 24 48v71l-24 48-24 24-47 24h-191"/><path d="m99706 27964 71 24 24 23 24 48v71l-24 48-24 24-47 24h-191v-500h167l47 24 24 23 24 48v48l-24 47-24 24-47 24h-167"/><path d="m99991 27726h310l-167 190h72l47 24 24 24 24 47v119l-24 48-24 24-47 24h-143l-48-24-24-24"/></g><g fill="#a90000" stroke="#a90000"><text font-size="666.65" lengthAdjust="spacingAndGlyphs" opacity="0" text-anchor="middle" textLength="536.18109" x="95500" y="27900">2</text><path d="m95357 27423 23-23 48-24h119l48 24 24 23 23 48v48l-23 71-286 286h309"/></g><path d="m96000 29000h-1000" fill="#840000" stroke="#840000"/><g fill="#006464" stroke="#006464"><text font-size="666.65" lengthAdjust="spacingAndGlyphs" opacity="0" textLength="4226.6533" x="96200" y="29250">XTAL2/PB4</text><path d="m96301 28726 333 500"/><path d="m96634 28726-333 500"/><path d="m96753 28726h286"/><path d="m96896 29226v-500"/><path d="m97182 29083h238"/><path d="m97134 29226 167-500 167 500"/><path d="m97872 29226h-238v-500"/><path d="m98015 28773 24-23 48-24h119l47 24 24 23 24 48v48l-24 71-286 286h310"/><path d="m98872 28702-428 643"/><path d="m99039 29226v-500h191l47 24 24 23 24 48v71l-24 48-24 24-47 24h-191"/><path d="m99706 28964 71 24 24 23 24 48v71l-24 48-24 24-47 24h-191v-500h167l47 24 24 23 24 48v48l-24 47-24 24-47 24h-167"/><path d="m100253 28892v334"/><path d="m100134 28702-119 357h310"/></g><g fill="#a90000" stroke="#a90000"><text font-size="666.65" lengthAdjust="spacingAndGlyphs" opacity="0" text-anchor="middle" textLength="536.18109" x="95500" y="28900">3</text><path d="m95333 28376h309l-166 190h71l48 24 24 24 23 47v119l-23 48-24 24-48 24h-143l-47-24-24-24"/></g><path d="m101000 33000v1000" fill="#840000" stroke="#840000"/><g fill="#006464" stroke="#006464"><text font-size="666.65" lengthAdjust="spacingAndGlyphs" opacity="0" textLength="1583.8188" transform="matrix(0 -1 1 0 68200 133800)" x="101000" y="33050">GND</text><path d="m100750 32389-24 47v72l24 71 47 48 48 23 95 24h71l96-24 47-23 48-48 24-71v-48l-24-71-24-24h-167v95"/><path d="m101226 32150h-500l500-285h-500"/><path d="m101226 31627h-500v-119l24-72 47-47 48-24 95-24h71l96 24 47 24 48 47 24 72z"/></g><g fill="#a90000" stroke="#a90000"><text font-size="666.65" lengthAdjust="spacingAndGlyphs" opacity="0" text-anchor="middle" textLength="536.18109" transform="matrix(0 -1 1 0 67400 134400)" x="100900" y="33500">4</text><path d="m100542 33404h334"/><path d="m100352 33523 357 119v-309"/></g><path d="m96000 25000h-1000" fill="#840000" stroke="#840000"/><g fill="#006464" stroke="#006464"><text font-size="666.65" lengthAdjust="spacingAndGlyphs" opacity="0" textLength="3869.5276" x="96200" y="25250">AREF/PB0</text><path d="m96325 25083h238"/><path d="m96277 25226 167-500 166 500"/><path d="m97063 25226-167-238"/><path d="m96777 25226v-500h191l47 24 24 23 24 48v71l-24 48-24 24-47 24h-191"/><path d="m97277 24964h167"/><path d="m97515 25226h-238v-500h238"/><path d="m97896 24964h-166"/><path d="m97730 25226v-500h238"/><path d="m98515 24702-428 643"/><path d="m98682 25226v-500h190l48 24 24 23 24 48v71l-24 48-24 24-48 24h-190"/><path d="m99349 24964 71 24 24 23 24 48v71l-24 48-24 24-48 24h-190v-500h167l47 24 24 23 24 48v48l-24 47-24 24-47 24h-167"/><path d="m99777 24726h48l47 24 24 23 24 48 24 95v119l-24 95-24 48-24 24-47 24h-48l-47-24-24-24-24-48-24-95v-119l24-95 24-48 24-23z"/></g><g fill="#a90000" stroke="#a90000"><text font-size="666.65" lengthAdjust="spacingAndGlyphs" opacity="0" text-anchor="middle" textLength="536.18109" x="95500" y="24900">5</text><path d="m95619 24376h-239l-23 238 23-24 48-24h119l48 24 24 24 23 47v119l-23 48-24 24-48 24h-119l-48-24-23-24"/></g><path d="m96000 26000h-1000" fill="#840000" stroke="#840000"/><g fill="#006464" stroke="#006464"><text font-size="666.65" lengthAdjust="spacingAndGlyphs" opacity="0" textLength="1536.1812" x="96200" y="26250">PB1</text><path d="m96349 26226v-500h190l48 24 23 23 24 48v71l-24 48-23 24-48 24h-190"/><path d="m97015 25964 72 24 23 23 24 48v71l-24 48-23 24-48 24h-190v-500h166l48 24 24 23 23 48v48l-23 47-24 24-48 24h-166"/><path d="m97610 26226h-285"/><path d="m97468 26226v-500l-48 71-48 48-47 24"/></g><g fill="#a90000" stroke="#a90000"><text font-size="666.65" lengthAdjust="spacingAndGlyphs" opacity="0" text-anchor="middle" textLength="536.18109" x="95500" y="25900">6</text><path d="m95595 25376h-95l-48 24-24 23-48 72-23 95v190l23 48 24 24 48 24h95l48-24 24-24 23-48v-119l-23-47-24-24-48-24h-95l-48 24-24 24-23 47"/></g><path d="m96000 27000h-1000" fill="#840000" stroke="#840000"/><g fill="#006464" stroke="#006464"><text font-size="666.65" lengthAdjust="spacingAndGlyphs" opacity="0" textLength="1536.1812" x="96200" y="27250">PB2</text><path d="m96349 27226v-500h190l48 24 23 23 24 48v71l-24 48-23 24-48 24h-190"/><path d="m97015 26964 72 24 23 23 24 48v71l-24 48-23 24-48 24h-190v-500h166l48 24 24 23 23 48v48l-23 47-24 24-48 24h-166"/><path d="m97325 26773 24-23 47-24h119l48 24 24 23 23 48v48l-23 71-286 286h309"/></g><g fill="#a90000" stroke="#a90000"><text font-size="666.65" lengthAdjust="spacingAndGlyphs" opacity="0" text-anchor="middle" textLength="536.18109" x="95500" y="26900">7</text><path d="m95333 26376h333l-214 500"/></g><path d="m101000 23000v-1000" fill="#840000" stroke="#840000"/><g fill="#006464" stroke="#006464"><text font-size="666.65" lengthAdjust="spacingAndGlyphs" opacity="0" text-anchor="end" textLength="1488.5826" transform="matrix(0 -1 1 0 77800 124200)" x="101000" y="23450">VCC</text><path d="m100726 24610 500-166-500-167"/><path d="m101178 23825 24 24 24 71v48l-24 71-48 48-47 23-96 24h-71l-95-24-48-23-47-48-24-71v-48l24-71 23-24"/><path d="m101178 23325 24 24 24 71v48l-24 71-48 48-47 23-96 24h-71l-95-24-48-23-47-48-24-71v-48l24-71 23-24"/></g><g fill="#a90000" stroke="#a90000"><text font-size="666.65" lengthAdjust="spacingAndGlyphs" opacity="0" text-anchor="middle" textLength="536.18109" transform="matrix(0 -1 1 0 78400 123400)" x="100900" y="22500">8</text><path d="m100590 22547-24 48-24 24-47 23h-24l-48-23-23-24-24-48v-95l24-48 23-24 48-23h24l47 23 24 24 24 48v95l24 48 24 24 47 23h95l48-23 24-24 24-48v-95l-24-48-24-24-48-23h-95l-47 23-24 24-24 48"/></g><g fill="#006464" stroke="#006464"><text font-size="666.65" lengthAdjust="spacingAndGlyphs" opacity="0" text-anchor="middle" textLength="1060" x="107031.26" y="27749.922">U2</text><path d="m106650 27226v404l24 48 23 24 48 24h95l48-24 24-24 23-48v-404"/><path d="m107150 27273 24-24 47-23h119l48 23 24 24 23 48v47l-23 72-286 286h309"/><text font-size="666.65" lengthAdjust="spacingAndGlyphs" opacity="0" text-anchor="middle" textLength="5250.4727" x="109126.49" y="28749.922">ATtiny85-20P</text><path d="m106626 28583h238"/><path d="m106578 28726 167-500 167 500"/><path d="m107007 28226h286"/><path d="m107150 28726v-500"/><path d="m107388 28392h190"/><path d="m107459 28226v428l24 48 48 24h47"/><path d="m107745 28726v-334"/><path d="m107745 28226-24 23 24 24 24-24-24-23v47"/><path d="m107983 28392v334"/><path d="m107983 28440 24-24 48-24h71l48 24 23 48v262"/><path d="m108388 28392 119 334"/><path d="m108626 28392-119 334-48 119-24 23-47 24"/><path d="m108888 28440-48-24-24-24-23-47v-24l23-48 24-24 48-23h95l48 23 24 24 23 48v24l-23 47-24 24-48 24h-95l-48 24-24 23-23 48v95l23 48 24 24 48 24h95l48-24 24-24 23-48v-95l-23-48-24-23-48-24"/><path d="m109531 28226h-238l-24 238 24-24 47-24h119l48 24 24 24 24 47v119l-24 48-24 24-48 24h-119l-47-24-24-24"/><path d="m109769 28535h381"/><path d="m110364 28273 24-24 47-23h120l47 23 24 24 24 48v47l-24 72-286 286h310"/><path d="m110959 28226h48l48 23 23 24 24 48 24 95v119l-24 95-24 48-23 24-48 24h-48l-47-24-24-24-24-48-24-95v-119l24-95 24-48 24-24z"/><path d="m111340 28726v-500h191l47 23 24 24 24 48v71l-24 48-24 24-47 23h-191"/></g></g></g></g><g fill="#840000" stroke="#840000" stroke-width="60" transform="matrix(.00254 0 0 .00254 -222.76 -48.76)"><g><text font-size="666.65" lengthAdjust="spacingAndGlyphs" opacity="0" text-anchor="end" textLength="5895.8662" x="93937.477" y="29285.748">BRIDGE_ENABLE</text><path d="m88359 29000 72 23 24 24 23 48v71l-23 48-24 24-48 23h-190v-500h166l48 24 24 24 24 48v47l-24 48-24 24-48 24h-166"/><path d="m88978 29261-166-238"/><path d="m88693 29261v-500h190l48 24 24 24 23 48v71l-23 48-24 24-48 23h-190"/><path d="m89193 29261v-500"/><path d="m89431 29261v-500h119l71 24 48 48 24 47 23 96v71l-23 95-24 48-48 48-71 23z"/><path d="m90193 28785-48-24h-71l-72 24-47 48-24 47-24 96v71l24 95 24 48 47 48 72 23h47l72-23 23-24v-167h-95"/><path d="m90431 29000h166"/><path d="m90669 29261h-238v-500h238"/><path d="m90764 29309h381"/><path d="m91264 29000h167"/><path d="m91502 29261h-238v-500h238"/><path d="m91716 29261v-500l286 500v-500"/><path d="m92216 29119h239"/><path d="m92169 29261 167-500 166 500"/><path d="m92836 29000 71 23 24 24 24 48v71l-24 48-24 24-48 23h-190v-500h167l47 24 24 24 24 48v47l-24 48-24 24-47 24h-167"/><path d="m93407 29261h-238v-500"/><path d="m93574 29000h166"/><path d="m93812 29261h-238v-500h238"/><path d="m94500 29000-437.52-500.16h-6333.5v1000.3h6333.5z" fill="none" stroke="#840000" stroke-linecap="round" stroke-linejoin="round" stroke-width="60"/></g><g><text font-size="666.65" lengthAdjust="spacingAndGlyphs" opacity="0" text-anchor="end" textLength="1491.1024" x="93937.477" y="28285.748">ADC</text><path d="m92574 28119h238"/><path d="m92526 28261 167-500 166 500"/><path d="m93026 28261v-500h119l71 24 48 48 24 47 24 96v71l-24 95-24 48-48 48-71 23z"/><path d="m93812 28214-24 24-72 23h-47l-72-23-47-48-24-48-24-95v-71l24-96 24-47 47-48 72-24h47l72 24 24 24"/><path d="m94500 28000-437.52-500.16h-1928.8v1000.3h1928.8z" fill="none" stroke="#840000" stroke-linecap="round" stroke-linejoin="round" stroke-width="60"/></g><g><text font-size="666.65" lengthAdjust="spacingAndGlyphs" opacity="0" text-anchor="end" textLength="1467.2834" x="93937.477" y="25285.748">SDA</text><path d="m92597 25238 72 23h119l48-23 23-24 24-48v-47l-24-48-23-24-48-24-95-23-48-24-24-24-24-48v-47l24-48 24-24 48-24h119l71 24"/><path d="m93097 25261v-500h119l72 24 48 48 23 47 24 96v71l-24 95-23 48-48 48-72 23z"/><path d="m93574 25119h238"/><path d="m93526 25261 167-500 166 500"/><path d="m94500 25000-437.52-500.16h-1905v1000.3h1905z" fill="none" stroke="#840000" stroke-linecap="round" stroke-linejoin="round" stroke-width="60"/></g><g><text font-size="666.65" lengthAdjust="spacingAndGlyphs" opacity="0" text-anchor="end" textLength="1538.7008" x="93937.477" y="27285.748">SCK</text><path d="m92526 27238 71 23h119l48-23 24-24 24-48v-47l-24-48-24-24-48-24-95-23-47-24-24-24-24-48v-47l24-48 24-24 47-24h119l72 24"/><path d="m93312 27214-24 24-72 23h-47l-72-23-47-48-24-48-24-95v-71l24-96 24-47 47-48 72-24h47l72 24 24 24"/><path d="m93526 27261v-500"/><path d="m93812 27261-215-285"/><path d="m93812 26761-286 286"/><path d="m94500 27000-437.52-500.16h-1976.39999999999v1000.3h1976.39999999999z" fill="none" stroke="#840000" stroke-linecap="round" stroke-linejoin="round" stroke-width="60"/></g></g><g stroke="#009600" stroke-width=".1524" transform="translate(-122.44 -153.85)"><path d="m156.22 159.7v1.27"/><path d="m139.71 168.59h1.27"/><path d="m139.71 173.67h1.27"/><path d="m139.71 176.21h1.27"/><path d="m156.22 191.45v1.27"/><path d="m139.71 178.75h1.27"/></g></g></svg>