<svg height="63.737mm" viewBox="0 0 66.658 63.737" width="66.658mm" xmlns="http://www.w3.org/2000/svg"><g fill-opacity="0" stroke-linecap="round" stroke-linejoin="round"><g stroke-width="60"><path d="m51.772 23.632h2.032v5.08h-2.032z" fill="#840000" stroke="#840000" stroke-width=".254"/><g transform="matrix(.00254 0 0 .00254 -33.572 -29.708)"><g fill="#840000" stroke="#840000" stroke-width="60"><path d="m34000 21000v-500"/><path d="m34000 23000v500"/></g><g fill="#006464" stroke="#006464" stroke-width="60"><text font-size="666.65" lengthAdjust="spacingAndGlyphs" opacity="0" text-anchor="middle" textLength="1038.7008" x="35519.332" y="21749.922">R5</text><path d="m35435 21726-166-239"/><path d="m35150 21726v-500h190l48 23 24 24 23 48v71l-23 48-24 24-48 23h-190"/><path d="m35888 21226h-238l-24 238 24-24 47-24h119l48 24 24 24 24 47v119l-24 48-24 24-48 24h-119l-47-24-24-24"/><text font-size="666.65" lengthAdjust="spacingAndGlyphs" opacity="0" text-anchor="middle" textLength="1417.126" x="35709.805" y="22749.922">10k</text><path d="m35412 22726h-286"/><path d="m35269 22726v-500l-48 71-47 48-48 23"/><path d="m35721 22226h48l47 23 24 24 24 48 24 95v119l-24 95-24 48-24 24-47 24h-48l-47-24-24-24-24-48-24-95v-119l24-95 24-48 24-24z"/><path d="m36102 22726v-500"/><path d="m36150 22535 143 191"/><path d="m36293 22392-191 191"/></g><path d="m14000 22500v500h500l-500 500-500-500h500" fill="none" stroke="#840000" stroke-linecap="round" stroke-linejoin="round" stroke-width="60"/><g fill="#006464" stroke="#006464"><text font-size="666.65" lengthAdjust="spacingAndGlyphs" opacity="0" text-anchor="middle" textLength="1583.8188" x="14000" y="24749.961">GND</text><path d="m13619 24249-48-23h-71l-72 23-48 48-23 48-24 95v71l24 96 23 47 48 48 72 24h47l72-24 23-24v-167h-95"/><path d="m13857 24726v-500l285 500v-500"/><path d="m14380 24726v-500h120l71 23 48 48 23 48 24 95v71l-24 96-23 47-48 48-71 24z"/></g></g><g stroke="#840084"><g stroke="#840000"><g fill="none" fill-opacity="0" transform="matrix(.00254 0 0 .00254 -33.572 -29.708)"><path d="m18000 15900v1100" stroke="#840000" stroke-linecap="round" stroke-linejoin="round" stroke-width="60"/><g stroke-width="100"><path d="m17250 15900h1500"/><path d="m18500 15700h400"/><path d="m17800 15700h400"/><path d="m17100 15700h400"/></g><g stroke-width="60"><path d="m17000 15000h300"/><path d="m19000 15000h-1000v700"/><path d="m18700 15700v-1000h-1400v1000"/></g></g><path d="m18000 15600-150-400h300z" style="fill:#840000;fill-opacity:1;fill-rule:evenodd;stroke-linecap:round;stroke-linejoin:round;stroke-width:60" transform="matrix(.00254 0 0 .00254 -33.572 -29.708)"/><g fill="none" fill-opacity="0" stroke-width="60" transform="matrix(.00254 0 0 .00254 -33.572 -29.708)"><path d="m17800 14900 50-50v-300l50-50"/><path d="m17850 14700 250 150v-300z"/></g><g fill="#840000"><circle cx="12.148" cy="9.281" fill="none" r="2.794" stroke-width=".254"/><g fill-opacity="1" stroke-width=".1524"><circle cx="13.926" cy="8.392" r=".254"/><circle cx="10.37" cy="8.392" r=".254"/></g><path d="m19000 15000h1000" fill="none" stroke-width="60" transform="matrix(.00254 0 0 .00254 -33.572 -29.708)"/></g></g><g fill-opacity="0" stroke-width="60" transform="matrix(.00254 0 0 .00254 -33.572 -29.708)"><g fill="#a90000" stroke="#a90000"><text font-size="666.65" lengthAdjust="spacingAndGlyphs" opacity="0" text-anchor="middle" textLength="536.18109" x="19500" y="14900">1</text><path d="m19642 14876h-285"/><path d="m19500 14876v-500l-48 71-48 48-47 24"/></g><path d="m18000 17000v1000" fill="#840000" stroke="#840000"/><g fill="#a90000" stroke="#a90000"><text font-size="666.65" lengthAdjust="spacingAndGlyphs" opacity="0" text-anchor="middle" textLength="536.18109" transform="matrix(0 -1 1 0 400 35400)" x="17900" y="17500">2</text><path d="m17423 17642-23-23-24-48v-119l24-48 23-24 48-23h48l71 23 286 286v-309"/></g><path d="m17000 15000h-1000" fill="#840000" stroke="#840000"/><g fill="#a90000" stroke="#a90000"><text font-size="666.65" lengthAdjust="spacingAndGlyphs" opacity="0" text-anchor="middle" textLength="536.18109" x="16500" y="14900">3</text><path d="m16333 14376h309l-166 190h71l48 24 24 24 23 47v119l-23 48-24 24-48 24h-143l-47-24-24-24"/></g><g fill="#006464" stroke="#006464"><text font-size="666.65" lengthAdjust="spacingAndGlyphs" opacity="0" text-anchor="middle" textLength="1060" x="18000" y="12250">Q1</text><path d="m17952 12273-48-23-47-48-72-72-47-23h-48"/><path d="m17714 12226-48-24-47-48-24-95v-167l24-95 47-47 48-24h95l48 24 47 47 24 95v167l-24 95-47 48-48 24z"/><path d="m18404 12226h-285"/><path d="m18261 12226v-500l-47 71-48 48-47 24"/><text font-size="666.65" lengthAdjust="spacingAndGlyphs" opacity="0" text-anchor="middle" textLength="2964.7637" x="17999.961" y="13250">2N7000</text><path d="m16642 12773 24-23 48-24h119l47 24 24 23 24 48v48l-24 71-286 286h310"/><path d="m17142 13226v-500l286 500v-500"/><path d="m17618 12726h334l-214 500"/><path d="m18238 12726h47l48 24 24 23 23 48 24 95v119l-24 95-23 48-24 24-48 24h-47l-48-24-24-24-24-48-24-95v-119l24-95 24-48 24-23z"/><path d="m18714 12726h47l48 24 24 23 24 48 23 95v119l-23 95-24 48-24 24-48 24h-47l-48-24-24-24-24-48-23-95v-119l23-95 24-48 24-23z"/><path d="m19190 12726h48l47 24 24 23 24 48 24 95v119l-24 95-24 48-24 24-47 24h-48l-48-24-24-24-23-48-24-95v-119l24-95 23-48 24-23z"/></g></g></g><g stroke="#006464"><g fill="none" stroke="#840000" transform="matrix(.00254 0 0 .00254 -33.572 -29.708)"><path d="m14700 13500 300-500"/><path d="m15000 14000v-1000"/><path d="m15000 13000 300 500"/></g><g fill="#006464" stroke="#006464" transform="matrix(.00254 0 0 .00254 -33.572 -29.708)"><text font-size="666.65" lengthAdjust="spacingAndGlyphs" opacity="0" text-anchor="middle" textLength="1583.8188" x="15000" y="12249.961">+5V</text><path d="m14357 12035h381"/><path d="m14547 12226v-381"/><path d="m15214 11726h-238l-24 238 24-24 47-24h119l48 24 24 24 24 47v119l-24 48-24 24-48 24h-119l-47-24-24-24"/><path d="m15380 11726 167 500 167-500"/></g><path d="m36.532 49.032h2.032v5.08h-2.032z" fill="#840000" stroke="#840000" stroke-width=".254"/><g transform="matrix(.00254 0 0 .00254 -33.572 -29.708)"><g fill="#840000" stroke="#840000" stroke-width="60"><path d="m29000 31400v-400h-400 400l-1800 1800" fill="none" stroke="#840000" stroke-linecap="round" stroke-linejoin="round" stroke-width="60"/><path d="m28000 31000v-500"/><path d="m28000 33000v500"/></g><g fill="#006464" stroke="#006464" stroke-width="60"><text font-size="666.65" lengthAdjust="spacingAndGlyphs" opacity="0" text-anchor="middle" textLength="1036.1812" x="30019.33" y="31749.922">R4</text><path d="m29935 31726-166-239"/><path d="m29650 31726v-500h190l48 23 24 24 23 48v71l-23 48-24 24-48 23h-190"/><path d="m30364 31392v334"/><path d="m30245 31202-119 357h309"/><text font-size="666.65" lengthAdjust="spacingAndGlyphs" opacity="0" text-anchor="middle" textLength="2536.1812" x="30769.33" y="32749.922">PROBE</text><path d="m29650 32726v-500h190l48 23 24 24 23 48v71l-23 48-24 24-48 23h-190"/><path d="m30435 32726-166-239"/><path d="m30150 32726v-500h190l48 23 24 24 23 48v71l-23 48-24 24-48 23h-190"/><path d="m30745 32226h95l48 23 47 48 24 95v167l-24 95-47 48-48 24h-95l-48-24-47-48-24-95v-167l24-95 47-48z"/><path d="m31340 32464 72 23 23 24 24 48v71l-24 48-23 24-48 24h-190v-500h166l48 23 24 24 23 48v47l-23 48-24 24-48 24h-166"/><path d="m31674 32464h166"/><path d="m31912 32726h-238v-500h238"/></g><path d="m31000 34500v500h500l-500 500-500-500h500" fill="none" stroke="#840000" stroke-linecap="round" stroke-linejoin="round" stroke-width="60"/><g fill="#006464" stroke="#006464"><text font-size="666.65" lengthAdjust="spacingAndGlyphs" opacity="0" text-anchor="middle" textLength="1583.8188" x="31000" y="36749.96100000001">GND</text><path d="m30619 36249-48-23h-71l-72 23-48 48-23 48-24 95v71l24 96 23 47 48 48 72 24h47l72-24 23-24v-167h-95"/><path d="m30857 36726v-500l285 500v-500"/><path d="m31380 36726v-500h120l71 23 48 48 23 48 24 95v71l-24 96-23 47-48 48-71 24z"/></g></g><path d="m11.132 18.552h2.032v5.08h-2.032z" fill="#840000" stroke="#840000" stroke-width=".254"/><g fill="#840000" stroke="#840000" stroke-width="60" transform="matrix(.00254 0 0 .00254 -33.572 -29.708)"><path d="m18000 19000v-500"/><path d="m18000 21000v500"/></g><g fill="#006464" stroke="#006464" stroke-width="60" transform="matrix(.00254 0 0 .00254 -33.572 -29.708)"><text font-size="666.65" lengthAdjust="spacingAndGlyphs" opacity="0" text-anchor="middle" textLength="1036.1812" x="19519.33" y="19749.922">R2</text><path d="m19435 19726-166-239"/><path d="m19150 19726v-500h190l48 23 24 24 23 48v71l-23 48-24 24-48 23h-190"/><path d="m19626 19273 24-24 47-23h119l48 23 24 24 24 48v47l-24 72-286 286h310"/><text font-size="666.65" lengthAdjust="spacingAndGlyphs" opacity="0" text-anchor="middle" textLength="940.94489" x="19471.732" y="20749.922">1k</text><path d="m19412 20726h-286"/><path d="m19269 20726v-500l-48 71-47 48-48 23"/><path d="m19626 20726v-500"/><path d="m19674 20535 142 191"/><path d="m19816 20392-190 191"/></g><path d="m4.528 25.156h5.08v2.032h-5.08z" fill="#840000" stroke="#840000" stroke-width=".254"/><g fill="#840000" stroke="#840000" stroke-width="60" transform="matrix(.00254 0 0 .00254 -33.572 -29.708)"><path d="m15000 22000h-500"/><path d="m17000 22000h500"/></g><g fill="#006464" stroke="#006464" stroke-width="60" transform="matrix(.00254 0 0 .00254 -33.572 -29.708)"><text font-size="666.65" lengthAdjust="spacingAndGlyphs" opacity="0" text-anchor="middle" textLength="1036.1812" x="15999.961" y="19750">R1</text><path d="m15916 19726-167-238"/><path d="m15630 19726v-500h191l47 24 24 23 24 48v71l-24 48-24 24-47 24h-191"/><path d="m16392 19726h-285"/><path d="m16249 19726v-500l-47 71-48 48-47 24"/><text font-size="666.65" lengthAdjust="spacingAndGlyphs" opacity="0" text-anchor="middle" textLength="1417.126" x="15999.961" y="20750">22k</text><path d="m15416 20273 24-23 48-24h119l47 24 24 23 24 48v48l-24 71-286 286h310"/><path d="m15892 20273 24-23 48-24h119l47 24 24 23 24 48v48l-24 71-286 286h310"/><path d="m16392 20726v-500"/><path d="m16440 20535 143 191"/><path d="m16583 20392-191 191"/></g><path d="m51.772 49.032h2.032v5.08h-2.032z" fill="#840000" stroke="#840000" stroke-width=".254"/><g fill="#840000" stroke="#840000" stroke-width="60" transform="matrix(.00254 0 0 .00254 -33.572 -29.708)"><path d="m35000 31400v-400h-400 400l-1800 1800" fill="none" stroke="#840000" stroke-linecap="round" stroke-linejoin="round" stroke-width="60"/><path d="m34000 31000v-500"/><path d="m34000 33000v500"/></g><g fill="#006464" stroke="#006464" stroke-width="60" transform="matrix(.00254 0 0 .00254 -33.572 -29.708)"><text font-size="666.65" lengthAdjust="spacingAndGlyphs" opacity="0" text-anchor="middle" textLength="1036.1812" x="36019.332" y="31749.922">R6</text><path d="m35935 31726-166-239"/><path d="m35650 31726v-500h190l48 23 24 24 23 48v71l-23 48-24 24-48 23h-190"/><path d="m36364 31226h-95l-48 23-24 24-47 72-24 95v190l24 48 24 24 47 24h95l48-24 24-24 24-48v-119l-24-47-24-24-48-24h-95l-47 24-24 24-24 47"/><text font-size="666.65" lengthAdjust="spacingAndGlyphs" opacity="0" text-anchor="middle" textLength="3964.7637" x="37483.621" y="32749.922">R_Variable</text><path d="m35935 32726-166-239"/><path d="m35650 32726v-500h190l48 23 24 24 23 48v71l-23 48-24 24-48 23h-190"/><path d="m36031 32773h381"/><path d="m36459 32226 167 500 167-500"/><path d="m37174 32726v-262l-24-48-48-24h-95l-48 24"/><path d="m37174 32702-48 24h-119l-48-24-24-48v-47l24-48 48-24h119l48-24"/><path d="m37412 32726v-334"/><path d="m37412 32487 23-47 24-24 48-24h48"/><path d="m37721 32726v-334"/><path d="m37721 32226-24 23 24 24 24-24-24-23v47"/><path d="m38174 32726v-262l-24-48-48-24h-95l-48 24"/><path d="m38174 32702-48 24h-119l-48-24-24-48v-47l24-48 48-24h119l48-24"/><path d="m38412 32726v-500"/><path d="m38412 32416 47-24h96l47 24 24 24 24 47v143l-24 48-24 24-47 24h-96l-47-24"/><path d="m38935 32726-47-24-24-48v-428"/><path d="m39316 32702-47 24h-95l-48-24-24-48v-190l24-48 48-24h95l47 24 24 48v47l-238 48"/></g><path d="m36.532 23.632h2.032v5.08h-2.032z" fill="#840000" stroke="#840000" stroke-width=".254"/><g fill="#840000" stroke="#840000" stroke-width="60" transform="matrix(.00254 0 0 .00254 -33.572 -29.708)"><path d="m28000 21000v-500"/><path d="m28000 23000v500"/></g><g fill="#006464" stroke="#006464" stroke-width="60" transform="matrix(.00254 0 0 .00254 -33.572 -29.708)"><text font-size="666.65" lengthAdjust="spacingAndGlyphs" opacity="0" text-anchor="middle" textLength="1036.1812" x="29519.33" y="21749.922">R3</text><path d="m29435 21726-166-239"/><path d="m29150 21726v-500h190l48 23 24 24 23 48v71l-23 48-24 24-48 23h-190"/><path d="m29602 21226h310l-167 190h71l48 24 24 24 24 47v119l-24 48-24 24-48 24h-142l-48-24-24-24"/><text font-size="666.65" lengthAdjust="spacingAndGlyphs" opacity="0" text-anchor="middle" textLength="1417.126" x="29709.803" y="22749.922">10k</text><path d="m29412 22726h-286"/><path d="m29269 22726v-500l-48 71-47 48-48 23"/><path d="m29721 22226h48l47 23 24 24 24 48 24 95v119l-24 95-24 48-24 24-47 24h-48l-47-24-24-24-24-48-24-95v-119l24-95 24-48 24-24z"/><path d="m30102 22726v-500"/><path d="m30150 22535 143 191"/><path d="m30293 22392-191 191"/></g></g></g><g fill="#840000" stroke="#840000" stroke-width="60" transform="matrix(.00254 0 0 .00254 -33.572 -29.708)"><g><text font-size="666.65" lengthAdjust="spacingAndGlyphs" opacity="0" textLength="5893.3467" x="19062.52" y="22285.748">BRIDGE_ENABLE</text><path d="m19378 22000 71 23 24 24 24 48v71l-24 48-24 24-47 23h-191v-500h167l47 24 24 24 24 48v47l-24 48-24 24-47 24h-167"/><path d="m19997 22261-167-238"/><path d="m19711 22261v-500h191l47 24 24 24 24 48v71l-24 48-24 24-47 23h-191"/><path d="m20211 22261v-500"/><path d="m20449 22261v-500h119l72 24 47 48 24 47 24 96v71l-24 95-24 48-47 48-72 23z"/><path d="m21211 21785-48-24h-71l-71 24-48 48-24 47-24 96v71l24 95 24 48 48 48 71 23h48l71-23 24-24v-167h-95"/><path d="m21449 22000h167"/><path d="m21687 22261h-238v-500h238"/><path d="m21782 22309h381"/><path d="m22282 22000h167"/><path d="m22521 22261h-239v-500h239"/><path d="m22735 22261v-500l286 500v-500"/><path d="m23235 22119h238"/><path d="m23187 22261 167-500 167 500"/><path d="m23854 22000 71 23 24 24 24 48v71l-24 48-24 24-47 23h-191v-500h167l48 24 23 24 24 48v47l-24 48-23 24-48 24h-167"/><path d="m24425 22261h-238v-500"/><path d="m24592 22000h167"/><path d="m24830 22261h-238v-500h238"/><path d="m18500 22000 437.52 500.16h6333.5v-1000.3h-6333.5z" fill="none" stroke="#840000" stroke-linecap="round" stroke-linejoin="round" stroke-width="60"/></g><g><text font-size="666.65" lengthAdjust="spacingAndGlyphs" opacity="0" textLength="3633.937" x="35062.52" y="27285.748">BRIDGE_B</text><path d="m35378 27000 71 23 24 24 24 48v71l-24 48-24 24-47 23h-191v-500h167l47 24 24 24 24 48v47l-24 48-24 24-47 24h-167"/><path d="m35997 27261-167-238"/><path d="m35711 27261v-500h191l47 24 24 24 24 48v71l-24 48-24 24-47 23h-191"/><path d="m36211 27261v-500"/><path d="m36449 27261v-500h119l72 24 47 48 24 47 24 96v71l-24 95-24 48-47 48-72 23z"/><path d="m37211 26785-48-24h-71l-71 24-48 48-24 47-24 96v71l24 95 24 48 48 48 71 23h48l71-23 24-24v-167h-95"/><path d="m37449 27000h167"/><path d="m37687 27261h-238v-500h238"/><path d="m37782 27309h381"/><path d="m38449 27000 72 23 23 24 24 48v71l-24 48-23 24-48 23h-191v-500h167l48 24 24 24 23 48v47l-23 48-24 24-48 24h-167"/><path d="m34500 27000 437.52 500.16h4071.6v-1000.3h-4071.6z" fill="none" stroke="#840000" stroke-linecap="round" stroke-linejoin="round" stroke-width="60"/></g><g><text font-size="666.65" lengthAdjust="spacingAndGlyphs" opacity="0" text-anchor="end" textLength="3562.5198" x="26937.48" y="27285.748">BRIDGE_A</text><path d="m23693 27000 71 23 24 24 24 48v71l-24 48-24 24-48 23h-190v-500h167l47 24 24 24 24 48v47l-24 48-24 24-47 24h-167"/><path d="m24312 27261-167-238"/><path d="m24026 27261v-500h190l48 24 24 24 24 48v71l-24 48-24 24-48 23h-190"/><path d="m24526 27261v-500"/><path d="m24764 27261v-500h119l72 24 47 48 24 47 24 96v71l-24 95-24 48-47 48-72 23z"/><path d="m25526 26785-48-24h-71l-71 24-48 48-24 47-24 96v71l24 95 24 48 48 48 71 23h48l71-23 24-24v-167h-95"/><path d="m25764 27000h167"/><path d="m26002 27261h-238v-500h238"/><path d="m26097 27309h381"/><path d="m26574 27119h238"/><path d="m26526 27261 167-500 166 500"/><path d="m27500 27000-437.52-500.16h-4000.2v1000.3h4000.2z" fill="none" stroke="#840000" stroke-linecap="round" stroke-linejoin="round" stroke-width="60"/></g></g><g stroke="#009600" stroke-width=".1524" transform="translate(-128.33 -89.509)"><path d="m140.48 115.68h1.27"/><path d="m130.32 115.68v1.27"/><path d="m145.56 97.901h27.94"/><path d="m173.5 97.901v10.16"/><path d="m164.61 128.38h1.27"/><path d="m165.88 119.49v8.89"/><path d="m165.88 128.38v8.89"/><path d="m139.21 115.68h1.27"/><path d="m131.59 115.68h-1.27"/><path d="m140.48 114.41v1.27"/><path d="m181.12 128.38v8.89"/><path d="m173.5 147.43v-1.27"/><path d="m181.12 128.38h1.27"/><path d="m181.12 144.89v1.27"/><path d="m173.5 146.16h7.62"/><path d="m181.12 119.49v8.89"/><path d="m181.12 111.87v-3.81"/><path d="m173.5 108.06h-7.62"/><path d="m165.88 108.06v3.81"/><path d="m173.5 108.06h7.62"/><path d="m165.88 146.16v-1.27"/><path d="m173.5 146.16h-7.62"/><path d="m140.48 105.52v1.27"/><path d="m132.86 97.901h2.54"/><path d="m132.86 95.361v2.54"/></g></g></svg>