<svg height="44.689mm" viewBox="0 0 112.87 44.689" width="112.87mm" xmlns="http://www.w3.org/2000/svg"><g fill-opacity="0" stroke-linecap="round" stroke-linejoin="round"><g stroke-width="60"><g transform="matrix(.00254 0 0 .00254 -106.58 -46.221)"><path d="m63000 33000v500h500l-500 500-500-500h500" fill="none" stroke="#840000" stroke-linecap="round" stroke-linejoin="round" stroke-width="60"/><g fill="#006464" stroke="#006464"><text font-size="666.65" lengthAdjust="spacingAndGlyphs" opacity="0" text-anchor="middle" textLength="1583.8188" x="63000" y="35249.96100000001">GND</text><path d="m62619 34749-48-23h-71l-72 23-48 48-23 48-24 95v71l24 96 23 47 48 48 72 24h47l72-24 23-24v-167h-95"/><path d="m62857 35226v-500l285 500v-500"/><path d="m63380 35226v-500h120l71 23 48 48 23 48 24 95v71l-24 96-23 47-48 48-71 24z"/></g><path d="m78500 29500v1500" fill="#840000" stroke="#840000"/><g fill="#006464" stroke="#006464"><text font-size="666.65" lengthAdjust="spacingAndGlyphs" opacity="0" textLength="1107.6378" transform="matrix(0 -1 1 0 49050 107950)" x="78500" y="29700">V-</text><path d="m78226 29372 500-167-500-166"/><path d="m78535 28872v-381"/></g><g fill="#a90000" stroke="#a90000"><text font-size="666.65" lengthAdjust="spacingAndGlyphs" opacity="0" text-anchor="middle" textLength="1012.3622" transform="matrix(0 -1 1 0 48150 108650)" x="78400" y="30250">11</text><path d="m78376 30345v285"/><path d="m78376 30488h-500l71 47 48 48 24 47"/><path d="m78376 29869v285"/><path d="m78376 30011h-500l71 48 48 48 24 47"/></g><path d="m78500 26500v-1500" fill="#840000" stroke="#840000"/><g fill="#006464" stroke="#006464"><text font-size="666.65" lengthAdjust="spacingAndGlyphs" opacity="0" text-anchor="end" textLength="1107.6378" transform="matrix(0 -1 1 0 51950 105050)" x="78500" y="26800">V+</text><path d="m78226 27580 500-167-500-167"/><path d="m78535 27080v-381"/><path d="m78726 26889h-381"/></g><g fill="#a90000" stroke="#a90000"><text font-size="666.65" lengthAdjust="spacingAndGlyphs" opacity="0" text-anchor="middle" textLength="536.18109" transform="matrix(0 -1 1 0 52650 104150)" x="78400" y="25750">4</text><path d="m78042 25654h334"/><path d="m77852 25773 357 119v-309"/></g><g fill="none" stroke="#840000"><path d="m78200 24000 300-500"/><path d="m78500 24500v-1000"/><path d="m78500 23500 300 500"/></g><g fill="#006464" stroke="#006464"><text font-size="666.65" lengthAdjust="spacingAndGlyphs" opacity="0" text-anchor="middle" textLength="1583.8188" x="78500" y="22749.961">+5V</text><path d="m77857 22535h381"/><path d="m78047 22726v-381"/><path d="m78714 22226h-238l-24 238 24-24 47-24h119l48 24 24 24 24 47v119l-24 48-24 24-48 24h-119l-47-24-24-24"/><path d="m78880 22226 167 500 167-500"/></g></g><g stroke="#006464"><path d="m44.55 23.883h5.08v2.032h-5.08z" fill="#840000" stroke="#840000" stroke-width=".254"/><g fill="#840000" stroke="#840000" stroke-width="60" transform="matrix(.00254 0 0 .00254 -106.58 -46.221)"><path d="m59500 28000h-500"/><path d="m61500 28000h500"/></g><g fill="#006464" stroke="#006464" stroke-width="60" transform="matrix(.00254 0 0 .00254 -106.58 -46.221)"><text font-size="666.65" lengthAdjust="spacingAndGlyphs" opacity="0" text-anchor="middle" textLength="1036.1812" x="60499.961" y="29750">R8</text><path d="m60416 29726-167-238"/><path d="m60130 29726v-500h191l47 24 24 23 24 48v71l-24 48-24 24-47 24h-191"/><path d="m60702 29440-48-24-24-24-23-47v-24l23-48 24-23 48-24h95l48 24 23 23 24 48v24l-24 47-23 24-48 24h-95l-48 24-24 24-23 47v95l23 48 24 24 48 24h95l48-24 23-24 24-48v-95l-24-47-23-24-48-24"/><text font-size="666.65" lengthAdjust="spacingAndGlyphs" opacity="0" text-anchor="middle" textLength="1893.3464" x="60499.961" y="30750">100k</text><path d="m59964 30726h-286"/><path d="m59821 30726v-500l-48 71-47 48-48 24"/><path d="m60273 30226h48l47 24 24 23 24 48 24 95v119l-24 95-24 48-24 24-47 24h-48l-47-24-24-24-24-48-24-95v-119l24-95 24-48 24-23z"/><path d="m60749 30226h48l48 24 23 23 24 48 24 95v119l-24 95-24 48-23 24-48 24h-48l-47-24-24-24-24-48-24-95v-119l24-95 24-48 24-23z"/><path d="m61130 30726v-500"/><path d="m61178 30535 143 191"/><path d="m61321 30392-191 191"/></g><path d="m44.55 18.803h5.08v2.032h-5.08z" fill="#840000" stroke="#840000" stroke-width=".254"/><g transform="matrix(.00254 0 0 .00254 -106.58 -46.221)"><g fill="#840000" stroke="#840000" stroke-width="60"><path d="m59500 26000h-500"/><path d="m61500 26000h500"/></g><g fill="#006464" stroke="#006464" stroke-width="60"><text font-size="666.65" lengthAdjust="spacingAndGlyphs" opacity="0" text-anchor="middle" textLength="1036.1812" x="60499.961" y="23750">R7</text><path d="m60416 23726-167-238"/><path d="m60130 23726v-500h191l47 24 24 23 24 48v71l-24 48-24 24-47 24h-191"/><path d="m60583 23226h333l-214 500"/><text font-size="666.65" lengthAdjust="spacingAndGlyphs" opacity="0" text-anchor="middle" textLength="1893.3464" x="60499.961" y="24750">100k</text><path d="m59964 24726h-286"/><path d="m59821 24726v-500l-48 71-47 48-48 24"/><path d="m60273 24226h48l47 24 24 23 24 48 24 95v119l-24 95-24 48-24 24-47 24h-48l-47-24-24-24-24-48-24-95v-119l24-95 24-48 24-23z"/><path d="m60749 24226h48l48 24 23 23 24 48 24 95v119l-24 95-24 48-23 24-48 24h-48l-47-24-24-24-24-48-24-95v-119l24-95 24-48 24-23z"/><path d="m61130 24726v-500"/><path d="m61178 24535 143 191"/><path d="m61321 24392-191 191"/></g><path d="m48000 33500 4000-2000-4000-2000z" style="fill:#ffffc2;fill-opacity:.6;fill-rule:evenodd;stroke:#ffffc2;stroke-linecap:round;stroke-linejoin:round;stroke-width:.03937"/><g fill-opacity="0"><g fill="none" stroke="#840000" stroke-width="100"><path d="m48000 33500 4000-2000-4000-2000z"/><path d="m48000 33500 4000-2000-4000-2000z"/></g><g stroke-width="60"><path d="m48000 32500h-1000" fill="#840000" stroke="#840000"/><g fill="#006464" stroke="#006464"><text font-size="666.65" lengthAdjust="spacingAndGlyphs" opacity="0" textLength="679.05511" x="48050" y="32750">+</text><path d="m48199 32535h381"/><path d="m48389 32726v-381"/></g><g fill="#a90000" stroke="#a90000"><text font-size="666.65" lengthAdjust="spacingAndGlyphs" opacity="0" text-anchor="middle" textLength="1012.3622" x="47500" y="32400">12</text><path d="m47404 32376h-285"/><path d="m47261 32376v-500l-47 71-48 48-47 24"/><path d="m47595 31923 24-23 47-24h119l48 24 24 23 23 48v48l-23 71-286 286h309"/></g><path d="m48000 30500h-1000" fill="#840000" stroke="#840000"/><g fill="#006464" stroke="#006464"><text font-size="666.65" lengthAdjust="spacingAndGlyphs" opacity="0" textLength="679.05511" x="48050" y="30750">-</text><path d="m48199 30535h381"/></g><g fill="#a90000" stroke="#a90000"><text font-size="666.65" lengthAdjust="spacingAndGlyphs" opacity="0" text-anchor="middle" textLength="1012.3622" x="47500" y="30400">13</text><path d="m47404 30376h-285"/><path d="m47261 30376v-500l-47 71-48 48-47 24"/><path d="m47571 29876h309l-166 190h71l48 24 24 24 23 47v119l-23 48-24 24-48 24h-143l-47-24-24-24"/></g><path d="m52000 31500h1000" fill="#840000" stroke="#840000"/><g fill="#a90000" stroke="#a90000"><text font-size="666.65" lengthAdjust="spacingAndGlyphs" opacity="0" text-anchor="middle" textLength="1012.3622" x="52500" y="31400">14</text><path d="m52404 31376h-285"/><path d="m52261 31376v-500l-47 71-48 48-47 24"/><path d="m52833 31042v334"/><path d="m52714 30852-119 357h309"/></g><g fill="#006464" stroke="#006464"><text font-size="666.65" lengthAdjust="spacingAndGlyphs" opacity="0" text-anchor="middle" textLength="1560" x="50000" y="35750">U1D</text><path d="m49369 35226v404l23 48 24 24 48 24h95l48-24 23-24 24-48v-404"/><path d="m50154 35726h-285"/><path d="m50011 35726v-500l-47 71-48 48-47 24"/><path d="m50369 35726v-500h119l71 24 48 47 23 48 24 95v71l-24 96-23 47-48 48-71 24z"/><text font-size="666.65" lengthAdjust="spacingAndGlyphs" opacity="0" text-anchor="middle" textLength="2464.7637" x="50000" y="34750">LM324</text><path d="m49154 34726h-238v-500"/><path d="m49321 34726v-500l167 357 166-357v500"/><path d="m49845 34226h309l-166 190h71l48 24 23 24 24 47v119l-24 48-23 24-48 24h-143l-47-24-24-24"/><path d="m50345 34273 24-23 47-24h119l48 24 24 23 23 48v48l-23 71-286 286h309"/><path d="m51059 34392v334"/><path d="m50940 34202-119 357h309"/></g><g fill="#840084" stroke="#840084"><text font-size="666.65" lengthAdjust="spacingAndGlyphs" opacity="0" text-anchor="middle" textLength="7179.0552" x="50000" y="28750">Voltage Follower 2</text><path d="m46488 28226 166 500 167-500"/><path d="m47059 28726-48-24-23-24-24-48v-142l24-48 23-24 48-24h71l48 24 24 24 24 48v142l-24 48-24 24-48 24z"/><path d="m47511 28726-47-24-24-48v-428"/><path d="m47630 28392h191"/><path d="m47702 28226v428l24 48 47 24h48"/><path d="m48202 28726v-262l-24-48-48-24h-95l-47 24"/><path d="m48202 28702-48 24h-119l-47-24-24-48v-47l24-48 47-24h119l48-24"/><path d="m48654 28392v405l-24 48-23 24-48 23h-71l-48-23"/><path d="m48654 28702-47 24h-96l-47-24-24-24-24-48v-142l24-48 24-24 47-24h96l47 24"/><path d="m49083 28702-48 24h-95l-48-24-23-48v-190l23-48 48-24h95l48 24 24 48v47l-238 48"/><path d="m49869 28464h-167"/><path d="m49702 28726v-500h238"/><path d="m50202 28726-48-24-24-24-23-48v-142l23-48 24-24 48-24h71l48 24 24 24 24 48v142l-24 48-24 24-48 24z"/><path d="m50654 28726-47-24-24-48v-428"/><path d="m50916 28726-47-24-24-48v-428"/><path d="m51178 28726-48-24-23-24-24-48v-142l24-48 23-24 48-24h72l47 24 24 24 24 48v142l-24 48-24 24-47 24z"/><path d="m51511 28392 96 334 95-238 95 238 95-334"/><path d="m52273 28702-47 24h-96l-47-24-24-48v-190l24-48 47-24h96l47 24 24 48v47l-238 48"/><path d="m52511 28726v-334"/><path d="m52511 28488 24-48 24-24 48-24h47"/><path d="m53178 28273 24-23 48-24h119l47 24 24 23 24 48v48l-24 71-286 286h310"/></g></g></g></g><path d="m59.79 7.373h5.08v2.032h-5.08z" fill="#840000" stroke="#840000" stroke-width=".254"/><g fill="#840000" stroke="#840000" stroke-width="60" transform="matrix(.00254 0 0 .00254 -106.58 -46.221)"><path d="m65500 21500h-500"/><path d="m67500 21500h500"/></g><g fill="#006464" stroke="#006464" stroke-width="60" transform="matrix(.00254 0 0 .00254 -106.58 -46.221)"><text font-size="666.65" lengthAdjust="spacingAndGlyphs" opacity="0" text-anchor="middle" textLength="1512.3622" x="66500" y="19250">R10</text><path d="m66178 19226-167-238"/><path d="m65892 19226v-500h191l47 24 24 23 24 48v71l-24 48-24 24-47 24h-191"/><path d="m66654 19226h-285"/><path d="m66511 19226v-500l-47 71-48 48-47 24"/><path d="m66964 18726h47l48 24 24 23 24 48 23 95v119l-23 95-24 48-24 24-48 24h-47l-48-24-24-24-23-48-24-95v-119l24-95 23-48 24-23z"/><text font-size="666.65" lengthAdjust="spacingAndGlyphs" opacity="0" text-anchor="middle" textLength="1893.3464" x="66499.961" y="20250">470k</text><path d="m65916 19892v334"/><path d="m65797 19702-119 357h310"/><path d="m66130 19726h334l-215 500"/><path d="m66749 19726h48l48 24 23 23 24 48 24 95v119l-24 95-24 48-23 24-48 24h-48l-47-24-24-24-24-48-24-95v-119l24-95 24-48 24-23z"/><path d="m67130 20226v-500"/><path d="m67178 20035 143 191"/><path d="m67321 19892-191 191"/></g><path d="m48000 20500 4000 2000-4000 2000z" style="fill:#ffffc2;fill-opacity:.6;fill-rule:evenodd;stroke:#ffffc2;stroke-linecap:round;stroke-linejoin:round;stroke-width:.03937" transform="matrix(.00254 0 0 .00254 -106.58 -46.221)"/><g fill-opacity="0" transform="matrix(.00254 0 0 .00254 -106.58 -46.221)"><g fill="none" stroke="#840000" stroke-width="100"><path d="m48000 20500 4000 2000-4000 2000z"/><path d="m48000 20500 4000 2000-4000 2000z"/></g><g stroke-width="60"><path d="m52000 22500h1000" fill="#840000" stroke="#840000"/><g fill="#a90000" stroke="#a90000"><text font-size="666.65" lengthAdjust="spacingAndGlyphs" opacity="0" text-anchor="middle" textLength="536.18109" x="52500" y="22400">1</text><path d="m52642 22376h-285"/><path d="m52500 22376v-500l-48 71-48 48-47 24"/></g><path d="m48000 23500h-1000" fill="#840000" stroke="#840000"/><g fill="#006464" stroke="#006464"><text font-size="666.65" lengthAdjust="spacingAndGlyphs" opacity="0" textLength="679.05511" x="48050" y="23750">-</text><path d="m48199 23535h381"/></g><g fill="#a90000" stroke="#a90000"><text font-size="666.65" lengthAdjust="spacingAndGlyphs" opacity="0" text-anchor="middle" textLength="536.18109" x="47500" y="23400">2</text><path d="m47357 22923 23-23 48-24h119l48 24 24 23 23 48v48l-23 71-286 286h309"/></g><path d="m48000 21500h-1000" fill="#840000" stroke="#840000"/><g fill="#006464" stroke="#006464"><text font-size="666.65" lengthAdjust="spacingAndGlyphs" opacity="0" textLength="679.05511" x="48050" y="21750">+</text><path d="m48199 21535h381"/><path d="m48389 21726v-381"/></g><g fill="#a90000" stroke="#a90000"><text font-size="666.65" lengthAdjust="spacingAndGlyphs" opacity="0" text-anchor="middle" textLength="536.18109" x="47500" y="21400">3</text><path d="m47333 20876h309l-166 190h71l48 24 24 24 23 47v119l-23 48-24 24-48 24h-143l-47-24-24-24"/></g><g fill="#006464" stroke="#006464"><text font-size="666.65" lengthAdjust="spacingAndGlyphs" opacity="0" text-anchor="middle" textLength="1488.5826" x="50000" y="18749.961">U1A</text><path d="m49404 18226v404l24 48 24 24 48 24h95l47-24 24-24 24-48v-404"/><path d="m50190 18726h-286"/><path d="m50047 18726v-500l-47 71-48 48-48 23"/><path d="m50380 18583h239"/><path d="m50333 18726 167-500 166 500"/><text font-size="666.65" lengthAdjust="spacingAndGlyphs" opacity="0" text-anchor="middle" textLength="2464.7637" x="50000" y="19749.961">LM324</text><path d="m49154 19726h-238v-500"/><path d="m49321 19726v-500l167 357 166-357v500"/><path d="m49845 19226h309l-166 190h71l48 24 23 24 24 47v119l-24 48-23 24-48 24h-143l-47-24-24-24"/><path d="m50345 19273 24-24 47-23h119l48 23 24 24 23 48v47l-23 72-286 286h309"/><path d="m51059 19392v334"/><path d="m50940 19202-119 357h309"/></g><g fill="#840084" stroke="#840084"><text font-size="666.65" lengthAdjust="spacingAndGlyphs" opacity="0" text-anchor="middle" textLength="7179.0552" x="50000" y="25249.961">Voltage Follower 1</text><path d="m46488 24726 166 500 167-500"/><path d="m47059 25226-48-24-23-24-24-48v-142l24-48 23-24 48-24h71l48 24 24 24 24 48v142l-24 48-24 24-48 24z"/><path d="m47511 25226-47-24-24-48v-428"/><path d="m47630 24892h191"/><path d="m47702 24726v428l24 48 47 24h48"/><path d="m48202 25226v-262l-24-48-48-24h-95l-47 24"/><path d="m48202 25202-48 24h-119l-47-24-24-48v-47l24-48 47-24h119l48-24"/><path d="m48654 24892v405l-24 48-23 23-48 24h-71l-48-24"/><path d="m48654 25202-47 24h-96l-47-24-24-24-24-48v-142l24-48 24-24 47-24h96l47 24"/><path d="m49083 25202-48 24h-95l-48-24-23-48v-190l23-48 48-24h95l48 24 24 48v47l-238 48"/><path d="m49869 24964h-167"/><path d="m49702 25226v-500h238"/><path d="m50202 25226-48-24-24-24-23-48v-142l23-48 24-24 48-24h71l48 24 24 24 24 48v142l-24 48-24 24-48 24z"/><path d="m50654 25226-47-24-24-48v-428"/><path d="m50916 25226-47-24-24-48v-428"/><path d="m51178 25226-48-24-23-24-24-48v-142l24-48 23-24 48-24h72l47 24 24 24 24 48v142l-24 48-24 24-47 24z"/><path d="m51511 24892 96 334 95-238 95 238 95-334"/><path d="m52273 25202-47 24h-96l-47-24-24-48v-190l24-48 47-24h96l47 24 24 48v47l-238 48"/><path d="m52511 25226v-334"/><path d="m52511 24988 24-48 24-24 48-24h47"/><path d="m53464 25226h-286"/><path d="m53321 25226v-500l-48 71-47 48-48 23"/></g></g></g></g><g stroke="#840084" transform="matrix(.00254 0 0 .00254 -106.58 -46.221)"><path d="m65000 29000 4000-2000-4000-2000z" style="fill:#ffffc2;fill-opacity:.6;fill-rule:evenodd;stroke:#ffffc2;stroke-linecap:round;stroke-linejoin:round;stroke-width:.03937"/><g fill-opacity="0"><g fill="none" stroke="#840000" stroke-width="100"><path d="m65000 29000 4000-2000-4000-2000z"/><path d="m65000 29000 4000-2000-4000-2000z"/></g><g stroke-width="60"><path d="m65000 28000h-1000" fill="#840000" stroke="#840000"/><g fill="#006464" stroke="#006464"><text font-size="666.65" lengthAdjust="spacingAndGlyphs" opacity="0" textLength="679.05511" x="65050" y="28250">+</text><path d="m65199 28035h381"/><path d="m65389 28226v-381"/></g><g fill="#a90000" stroke="#a90000"><text font-size="666.65" lengthAdjust="spacingAndGlyphs" opacity="0" text-anchor="middle" textLength="536.18109" x="64500" y="27900">5</text><path d="m64619 27376h-239l-23 238 23-24 48-24h119l48 24 24 24 23 47v119l-23 48-24 24-48 24h-119l-48-24-23-24"/></g><path d="m65000 26000h-1000" fill="#840000" stroke="#840000"/><g fill="#006464" stroke="#006464"><text font-size="666.65" lengthAdjust="spacingAndGlyphs" opacity="0" textLength="679.05511" x="65050" y="26250">-</text><path d="m65199 26035h381"/></g><g fill="#a90000" stroke="#a90000"><text font-size="666.65" lengthAdjust="spacingAndGlyphs" opacity="0" text-anchor="middle" textLength="536.18109" x="64500" y="25900">6</text><path d="m64595 25376h-95l-48 24-24 23-48 72-23 95v190l23 48 24 24 48 24h95l48-24 24-24 23-48v-119l-23-47-24-24-48-24h-95l-48 24-24 24-23 47"/></g><path d="m69000 27000h1000" fill="#840000" stroke="#840000"/><g fill="#a90000" stroke="#a90000"><text font-size="666.65" lengthAdjust="spacingAndGlyphs" opacity="0" text-anchor="middle" textLength="536.18109" x="69500" y="26900">7</text><path d="m69333 26376h333l-214 500"/></g><g fill="#006464" stroke="#006464"><text font-size="666.65" lengthAdjust="spacingAndGlyphs" opacity="0" text-anchor="middle" textLength="1560" x="67000" y="23250">U1B</text><path d="m66369 22726v404l23 48 24 24 48 24h95l48-24 23-24 24-48v-404"/><path d="m67154 23226h-285"/><path d="m67011 23226v-500l-47 71-48 48-47 24"/><path d="m67535 22964 72 24 23 23 24 48v71l-24 48-23 24-48 24h-190v-500h166l48 24 24 23 23 48v48l-23 47-24 24-48 24h-166"/><text font-size="666.65" lengthAdjust="spacingAndGlyphs" opacity="0" text-anchor="middle" textLength="2464.7637" x="67000" y="24250">LM324</text><path d="m66154 24226h-238v-500"/><path d="m66321 24226v-500l167 357 166-357v500"/><path d="m66845 23726h309l-166 190h71l48 24 23 24 24 47v119l-24 48-23 24-48 24h-143l-47-24-24-24"/><path d="m67345 23773 24-23 47-24h119l48 24 24 23 23 48v48l-23 71-286 286h309"/><path d="m68059 23892v334"/><path d="m67940 23702-119 357h309"/></g><g fill="#840084" stroke="#840084"><text font-size="666.65" lengthAdjust="spacingAndGlyphs" opacity="0" text-anchor="middle" textLength="7917.126" x="68000" y="29750">Differential Amplifier</text><path d="m64190 29726v-500h119l71 24 48 47 24 48 24 95v71l-24 96-24 47-48 48-71 24z"/><path d="m64690 29726v-334"/><path d="m64690 29226-24 24 24 23 24-23-24-24v47"/><path d="m64857 29392h190"/><path d="m64928 29726v-429l24-47 48-24h47"/><path d="m65142 29392h191"/><path d="m65214 29726v-429l24-47 47-24h48"/><path d="m65690 29702-48 24h-95l-47-24-24-48v-190l24-48 47-24h95l48 24 24 48v47l-238 48"/><path d="m65928 29726v-334"/><path d="m65928 29488 24-48 24-24 47-24h48"/><path d="m66428 29702-48 24h-95l-47-24-24-48v-190l24-48 47-24h95l48 24 24 48v47l-238 48"/><path d="m66666 29392v334"/><path d="m66666 29440 24-24 48-24h71l48 24 23 48v262"/><path d="m67047 29392h191"/><path d="m67119 29226v428l23 48 48 24h48"/><path d="m67404 29726v-334"/><path d="m67404 29226-24 24 24 23 24-23-24-24v47"/><path d="m67857 29726v-262l-24-48-48-24h-95l-48 24"/><path d="m67857 29702-48 24h-119l-48-24-23-48v-47l23-48 48-24h119l48-24"/><path d="m68166 29726-47-24-24-48v-428"/><path d="m68714 29583h238"/><path d="m68666 29726 167-500 167 500"/><path d="m69166 29726v-334"/><path d="m69166 29440 24-24 48-24h71l48 24 23 48v262"/><path d="m69380 29464 24-48 48-24h71l48 24 24 48v262"/><path d="m69833 29392v500"/><path d="m69833 29416 47-24h96l47 24 24 24 24 48v142l-24 48-24 24-47 24h-96l-47-24"/><path d="m70357 29726-48-24-24-48v-428"/><path d="m70547 29726v-334"/><path d="m70547 29226-24 24 24 23 24-23-24-24v47"/><path d="m70714 29392h190"/><path d="m70785 29726v-429l24-47 48-24h47"/><path d="m71071 29726v-334"/><path d="m71071 29226-24 24 24 23 24-23-24-24v47"/><path d="m71500 29702-48 24h-95l-48-24-24-48v-190l24-48 48-24h95l48 24 23 48v47l-238 48"/><path d="m71738 29726v-334"/><path d="m71738 29488 23-48 24-24 48-24h47"/></g></g></g></g><g stroke="#006464"><path d="m52.424 29.979h2.032v5.08h-2.032z" fill="#840000" stroke="#840000" stroke-width=".254"/><g transform="matrix(.00254 0 0 .00254 -106.58 -46.221)"><g fill="#840000" stroke="#840000" stroke-width="60"><path d="m63000 30000v-500"/><path d="m63000 32000v500"/></g><g fill="#006464" stroke="#006464" stroke-width="60"><text font-size="666.65" lengthAdjust="spacingAndGlyphs" opacity="0" text-anchor="middle" textLength="1036.1812" x="64519.332" y="30749.922">R9</text><path d="m64435 30726-166-239"/><path d="m64150 30726v-500h190l48 23 24 24 23 48v71l-23 48-24 24-48 23h-190"/><path d="m64674 30726h95l47-24 24-24 48-71 24-96v-190l-24-48-24-24-48-23h-95l-47 23-24 24-24 48v119l24 47 24 24 47 24h95l48-24 24-24 24-47"/><text font-size="666.65" lengthAdjust="spacingAndGlyphs" opacity="0" text-anchor="middle" textLength="1893.3464" x="64947.914" y="31749.922">470k</text><path d="m64364 31392v334"/><path d="m64245 31202-119 357h309"/><path d="m64578 31226h334l-215 500"/><path d="m65197 31226h48l48 23 23 24 24 48 24 95v119l-24 95-24 48-23 24-48 24h-48l-47-24-24-24-24-48-24-95v-119l24-95 24-48 24-24z"/><path d="m65578 31726v-500"/><path d="m65626 31535 143 191"/><path d="m65769 31392-191 191"/></g><path d="m78500 31500v500h500l-500 500-500-500h500" fill="none" stroke="#840000" stroke-linecap="round" stroke-linejoin="round" stroke-width="60"/><g fill="#006464" stroke="#006464"><text font-size="666.65" lengthAdjust="spacingAndGlyphs" opacity="0" text-anchor="middle" textLength="1583.8188" x="78500" y="33749.96100000001">GND</text><path d="m78119 33249-48-23h-71l-72 23-48 48-23 48-24 95v71l24 96 23 47 48 48 72 24h47l72-24 23-24v-167h-95"/><path d="m78357 33726v-500l285 500v-500"/><path d="m78880 33726v-500h120l71 23 48 48 23 48 24 95v71l-24 96-23 47-48 48-71 24z"/></g><path d="m77500 26000 4000 2000-4000 2000z" style="fill:#ffffc2;fill-opacity:.6;fill-rule:evenodd;stroke:#ffffc2;stroke-linecap:round;stroke-linejoin:round;stroke-width:.03937"/><g fill-opacity="0"><g fill="none" stroke="#840000" stroke-width="100"><path d="m77500 26000 4000 2000-4000 2000z"/><path d="m77500 26000 4000 2000-4000 2000z"/></g><g stroke-width="60"><path d="m77500 27000h-1000" fill="#840000" stroke="#840000"/><g fill="#006464" stroke="#006464"><text font-size="666.65" lengthAdjust="spacingAndGlyphs" opacity="0" textLength="679.05511" x="77550" y="27250">+</text><path d="m77699 27035h381"/><path d="m77889 27226v-381"/></g><g fill="#a90000" stroke="#a90000"><text font-size="666.65" lengthAdjust="spacingAndGlyphs" opacity="0" text-anchor="middle" textLength="1012.3622" x="77000" y="26900">10</text><path d="m76904 26876h-285"/><path d="m76761 26876v-500l-47 71-48 48-47 24"/><path d="m77214 26376h47l48 24 24 23 24 48 23 95v119l-23 95-24 48-24 24-48 24h-47l-48-24-24-24-23-48-24-95v-119l24-95 23-48 24-23z"/></g><path d="m81500 28000h1000" fill="#840000" stroke="#840000"/><g fill="#a90000" stroke="#a90000"><text font-size="666.65" lengthAdjust="spacingAndGlyphs" opacity="0" text-anchor="middle" textLength="536.18109" x="82000" y="27900">8</text><path d="m81952 27590-48-24-24-24-23-47v-24l23-48 24-23 48-24h95l48 24 24 23 23 48v24l-23 47-24 24-48 24h-95l-48 24-24 24-23 47v95l23 48 24 24 48 24h95l48-24 24-24 23-48v-95l-23-47-24-24-48-24"/></g><path d="m77500 29000h-1000" fill="#840000" stroke="#840000"/><g fill="#006464" stroke="#006464"><text font-size="666.65" lengthAdjust="spacingAndGlyphs" opacity="0" textLength="679.05511" x="77550" y="29250">-</text><path d="m77699 29035h381"/></g><g fill="#a90000" stroke="#a90000"><text font-size="666.65" lengthAdjust="spacingAndGlyphs" opacity="0" text-anchor="middle" textLength="536.18109" x="77000" y="28900">9</text><path d="m76904 28876h96l47-24 24-24 48-71 23-96v-190l-23-48-24-23-48-24h-95l-48 24-24 23-23 48v119l23 48 24 23 48 24h95l48-24 24-23 23-48"/></g><g fill="#006464" stroke="#006464"><text font-size="666.65" lengthAdjust="spacingAndGlyphs" opacity="0" text-anchor="middle" textLength="1560" x="81000" y="25249.961">U1C</text><path d="m80369 24726v404l23 48 24 24 48 24h95l48-24 23-24 24-48v-404"/><path d="m81154 25226h-285"/><path d="m81011 25226v-500l-47 71-48 48-47 23"/><path d="m81654 25178-24 24-71 24h-48l-71-24-48-48-23-47-24-96v-71l24-95 23-48 48-48 71-23h48l71 23 24 24"/><text font-size="666.65" lengthAdjust="spacingAndGlyphs" opacity="0" text-anchor="middle" textLength="2464.7637" x="81000" y="26249.961">LM324</text><path d="m80154 26226h-238v-500"/><path d="m80321 26226v-500l167 357 166-357v500"/><path d="m80845 25726h309l-166 190h71l48 24 23 24 24 47v119l-24 48-23 24-48 24h-143l-47-24-24-24"/><path d="m81345 25773 24-24 47-23h119l48 23 24 24 23 48v47l-23 72-286 286h309"/><path d="m82059 25892v334"/><path d="m81940 25702-119 357h309"/></g><g fill="#840084" stroke="#840084"><text font-size="666.65" lengthAdjust="spacingAndGlyphs" opacity="0" text-anchor="middle" textLength="7179.0552" x="79500" y="34749.96100000001">Voltage Follower 3</text><path d="m75988 34226 166 500 167-500"/><path d="m76559 34726-48-24-23-24-24-48v-142l24-48 23-24 48-24h71l48 24 24 24 24 48v142l-24 48-24 24-48 24z"/><path d="m77011 34726-47-24-24-48v-428"/><path d="m77130 34392h191"/><path d="m77202 34226v428l24 48 47 24h48"/><path d="m77702 34726v-262l-24-48-48-24h-95l-47 24"/><path d="m77702 34702-48 24h-119l-47-24-24-48v-47l24-48 47-24h119l48-24"/><path d="m78154 34392v405l-24 48-23 23-48 24h-71l-48-24"/><path d="m78154 34702-47 24h-96l-47-24-24-24-24-48v-142l24-48 24-24 47-24h96l47 24"/><path d="m78583 34702-48 24h-95l-48-24-23-48v-190l23-48 48-24h95l48 24 24 48v47l-238 48"/><path d="m79369 34464h-167"/><path d="m79202 34726v-500h238"/><path d="m79702 34726-48-24-24-24-23-48v-142l23-48 24-24 48-24h71l48 24 24 24 24 48v142l-24 48-24 24-48 24z"/><path d="m80154 34726-47-24-24-48v-428"/><path d="m80416 34726-47-24-24-48v-428"/><path d="m80678 34726-48-24-23-24-24-48v-142l24-48 23-24 48-24h72l47 24 24 24 24 48v142l-24 48-24 24-47 24z"/><path d="m81011 34392 96 334 95-238 95 238 95-334"/><path d="m81773 34702-47 24h-96l-47-24-24-48v-190l24-48 47-24h96l47 24 24 48v47l-238 48"/><path d="m82011 34726v-334"/><path d="m82011 34488 24-48 24-24 48-24h47"/><path d="m82654 34226h310l-167 190h72l47 24 24 24 24 47v119l-24 48-24 24-47 24h-143l-48-24-24-24"/></g></g></g></g></g></g><g fill="#840000" stroke="#840000" stroke-width="60" transform="matrix(.00254 0 0 .00254 -106.58 -46.221)"><g><text font-size="666.65" lengthAdjust="spacingAndGlyphs" opacity="0" textLength="1491.1024" x="84562.523" y="28285.748">ADC</text><path d="m84687 28119h238"/><path d="m84640 28261 166-500 167 500"/><path d="m85140 28261v-500h119l71 24 48 48 24 47 23 96v71l-23 95-24 48-48 48-71 23z"/><path d="m85925 28214-23 24-72 23h-48l-71-23-48-48-23-48-24-95v-71l24-96 23-47 48-48 71-24h48l72 24 23 24"/><path d="m84000 28000 437.52 500.16h1928.8v-1000.3h-1928.8z" fill="none" stroke="#840000" stroke-linecap="round" stroke-linejoin="round" stroke-width="60"/></g><g><text font-size="666.65" lengthAdjust="spacingAndGlyphs" opacity="0" text-anchor="end" textLength="3562.5198" x="45937.48" y="21785.748">BRIDGE_A</text><path d="m42693 21500 71 23 24 24 24 48v71l-24 48-24 24-48 23h-190v-500h167l47 24 24 24 24 48v47l-24 48-24 24-47 24h-167"/><path d="m43312 21761-167-238"/><path d="m43026 21761v-500h190l48 24 24 24 24 48v71l-24 48-24 24-48 23h-190"/><path d="m43526 21761v-500"/><path d="m43764 21761v-500h119l72 24 47 48 24 47 24 96v71l-24 95-24 48-47 48-72 23z"/><path d="m44526 21285-48-24h-71l-71 24-48 48-24 47-24 96v71l24 95 24 48 48 48 71 23h48l71-23 24-24v-167h-95"/><path d="m44764 21500h167"/><path d="m45002 21761h-238v-500h238"/><path d="m45097 21809h381"/><path d="m45574 21619h238"/><path d="m45526 21761 167-500 166 500"/><path d="m46500 21500-437.52-500.16h-4000.2v1000.3h4000.2z" fill="none" stroke="#840000" stroke-linecap="round" stroke-linejoin="round" stroke-width="60"/></g><g><text font-size="666.65" lengthAdjust="spacingAndGlyphs" opacity="0" text-anchor="end" textLength="3633.937" x="45937.48" y="32785.746">BRIDGE_B</text><path d="m42621 32500 72 23 23 24 24 48v71l-24 48-23 24-48 23h-190v-500h166l48 24 24 24 23 48v47l-23 48-24 24-48 24h-166"/><path d="m43240 32761-166-238"/><path d="m42955 32761v-500h190l48 24 23 24 24 48v71l-24 48-23 24-48 23h-190"/><path d="m43455 32761v-500"/><path d="m43693 32761v-500h119l71 24 48 48 24 47 23 96v71l-23 95-24 48-48 48-71 23z"/><path d="m44455 32285-48-24h-71l-72 24-48 48-23 47-24 96v71l24 95 23 48 48 48 72 23h47l72-23 23-24v-167h-95"/><path d="m44693 32500h166"/><path d="m44931 32761h-238v-500h238"/><path d="m45026 32809h381"/><path d="m45693 32500 71 23 24 24 24 48v71l-24 48-24 24-48 23h-190v-500h167l47 24 24 24 24 48v47l-24 48-24 24-47 24h-167"/><path d="m46500 32500-437.52-500.16h-4071.6v1000.3h4071.6z" fill="none" stroke="#840000" stroke-linecap="round" stroke-linejoin="round" stroke-width="60"/></g></g><g stroke="#009600" stroke-width=".1524" transform="translate(-65.988 -101.54)"><path d="m158.8 134.06v1.27"/><path d="m151.18 139.14h20.32"/><path d="m158.8 117.55v1.27"/><path d="m151.18 128.98v10.16"/><path d="m153.72 128.98h-2.54"/><path d="m171.5 126.44h1.27"/><path d="m171.5 126.44v12.7"/><path d="m119.43 126.44v3.81"/><path d="m119.43 126.44h2.54"/><path d="m116.89 126.44h2.54"/><path d="m76.248 115.01v6.35"/><path d="m96.568 112.47h-2.54"/><path d="m96.568 112.47v8.89"/><path d="m76.248 121.36h20.32"/><path d="m78.788 115.01h-2.54"/><path d="m124.51 109.93h-5.08"/><path d="m119.43 109.93v11.43"/><path d="m77.518 109.93h1.27"/><path d="m76.248 132.79v-6.35"/><path d="m78.788 132.79h-2.54"/><path d="m96.568 126.44v8.89"/><path d="m76.248 126.44h20.32"/><path d="m94.028 135.33h2.54"/><path d="m132.13 109.93h7.62"/><path d="m139.75 109.93v13.97"/><path d="m77.518 137.87h1.27"/><path d="m139.75 123.9h-2.54"/><path d="m116.89 121.36h2.54"/><path d="m119.43 121.36h2.54"/><path d="m139.75 123.9h13.97"/><path d="m171.5 126.44h-2.54"/><path d="m119.43 137.87v1.27"/><path d="m96.568 121.36h12.7"/><path d="m109.27 126.44h-12.7"/></g></g></svg>