<svg height="6.373724cm" viewBox="0 0 98541.507 25093.401" width="25.029543cm" xmlns="http://www.w3.org/2000/svg"><g stroke-linecap="round" stroke-linejoin="round" stroke-width="60"><g fill-opacity="0"><g stroke="#000"><path d="m20383.156 9304h800v2000h-800z" fill="none" stroke="#840000" stroke-width="100"/><g fill-opacity="0" stroke-width="60" transform="translate(-13216.844 -11696)"><g fill="#840000" stroke="#840000"><path d="m34000 21000v-500"/><path d="m34000 23000v500"/></g><g fill="#006464" stroke="#006464"><text font-size="666.654" lengthAdjust="spacingAndGlyphs" opacity="0" text-anchor="middle" textLength="1038.7008" x="35519.332" y="21749.922">R5</text><path d="m35435 21726-166-239"/><path d="m35150 21726v-500h190l48 23 24 24 23 48v71l-23 48-24 24-48 23h-190"/><path d="m35888 21226h-238l-24 238 24-24 47-24h119l48 24 24 24 24 47v119l-24 48-24 24-48 24h-119l-47-24-24-24"/><text font-size="666.654" lengthAdjust="spacingAndGlyphs" opacity="0" text-anchor="middle" textLength="1417.126" x="35709.805" y="22749.922">10k</text><path d="m35412 22726h-286"/><path d="m35269 22726v-500l-48 71-47 48-48 23"/><path d="m35721 22226h48l47 23 24 24 24 48 24 95v119l-24 95-24 48-24 24-47 24h-48l-47-24-24-24-24-48-24-95v-119l24-95 24-48 24-24z"/><path d="m36102 22726v-500"/><path d="m36150 22535 143 191"/><path d="m36293 22392-191 191"/></g></g></g><g fill="#006464" stroke="#006464" transform="translate(-13216.844 -11696)"><path d="m63000 33000v500h500l-500 500-500-500h500" fill="none" stroke="#840000"/><g fill="#006464" fill-opacity="0" stroke="#006464"><text font-size="666.654" lengthAdjust="spacingAndGlyphs" opacity="0" text-anchor="middle" textLength="1583.8188" x="63000" y="35249.96100000001">GND</text><path d="m62619 34749-48-23h-71l-72 23-48 48-23 48-24 95v71l24 96 23 47 48 48 72 24h47l72-24 23-24v-167h-95"/><path d="m62857 35226v-500l285 500v-500"/><path d="m63380 35226v-500h120l71 23 48 48 23 48 24 95v71l-24 96-23 47-48 48-71 24z"/></g></g><g fill="#006464" stroke="#006464" transform="translate(-13216.844 -11696)"><path d="m78500 29500v1500" fill="none" stroke="#840000"/><g fill="#006464" fill-opacity="0" stroke="#006464"><text font-size="666.654" lengthAdjust="spacingAndGlyphs" opacity="0" textLength="1107.6378" transform="matrix(0 -1 1 0 49050 107950)" x="78500" y="29700">V-</text><path d="m78226 29372 500-167-500-166"/><path d="m78535 28872v-381"/></g><g fill="#a90000" fill-opacity="0" stroke="#a90000"><text font-size="666.654" lengthAdjust="spacingAndGlyphs" opacity="0" text-anchor="middle" textLength="1012.3622" transform="matrix(0 -1 1 0 48150 108650)" x="78400" y="30250">11</text><path d="m78376 30345v285"/><path d="m78376 30488h-500l71 47 48 48 24 47"/><path d="m78376 29869v285"/><path d="m78376 30011h-500l71 48 48 48 24 47"/></g><path d="m78500 26500v-1500" fill="none" stroke="#840000"/><g fill-opacity="0"><g fill="#006464" stroke="#006464"><text font-size="666.654" lengthAdjust="spacingAndGlyphs" opacity="0" text-anchor="end" textLength="1107.6378" transform="matrix(0 -1 1 0 51950 105050)" x="78500" y="26800">V+</text><path d="m78226 27580 500-167-500-167"/><path d="m78535 27080v-381"/><path d="m78726 26889h-381"/></g><g fill="#a90000" stroke="#a90000"><text font-size="666.654" lengthAdjust="spacingAndGlyphs" opacity="0" text-anchor="middle" textLength="536.18109" transform="matrix(0 -1 1 0 52650 104150)" x="78400" y="25750">4</text><path d="m78042 25654h334"/><path d="m77852 25773 357 119v-309"/></g></g></g><g fill="#a90000" stroke="#a90000" transform="translate(-13216.844 -11696)"><g fill="none" stroke="#840000"><path d="m78200 24000 300-500"/><path d="m78500 24500v-1000"/><path d="m78500 23500 300 500"/></g><g fill="#006464" stroke="#006464"><text font-size="666.654" lengthAdjust="spacingAndGlyphs" opacity="0" text-anchor="middle" textLength="1583.8188" x="78500" y="22749.961">+5V</text><path d="m77857 22535h381"/><path d="m78047 22726v-381"/><path d="m78714 22226h-238l-24 238 24-24 47-24h119l48 24 24 24 24 47v119l-24 48-24 24-48 24h-119l-47-24-24-24"/><path d="m78880 22226 167 500 167-500"/></g></g><g fill="#006464" stroke="#006464"><path d="m46283.156 15904h2000v800h-2000z" fill="none" stroke="#840000" stroke-width="100"/><g fill-opacity="0" stroke-width="60" transform="translate(-13216.844 -11696)"><g fill="#840000" stroke="#840000"><path d="m59500 28000h-500"/><path d="m61500 28000h500"/></g><g fill="#006464" stroke="#006464"><text font-size="666.654" lengthAdjust="spacingAndGlyphs" opacity="0" text-anchor="middle" textLength="1036.1812" x="60499.961" y="29750">R8</text><path d="m60416 29726-167-238"/><path d="m60130 29726v-500h191l47 24 24 23 24 48v71l-24 48-24 24-47 24h-191"/><path d="m60702 29440-48-24-24-24-23-47v-24l23-48 24-23 48-24h95l48 24 23 23 24 48v24l-24 47-23 24-48 24h-95l-48 24-24 24-23 47v95l23 48 24 24 48 24h95l48-24 23-24 24-48v-95l-24-47-23-24-48-24"/><text font-size="666.654" lengthAdjust="spacingAndGlyphs" opacity="0" text-anchor="middle" textLength="1893.3464" x="60499.961" y="30750">100k</text><path d="m59964 30726h-286"/><path d="m59821 30726v-500l-48 71-47 48-48 24"/><path d="m60273 30226h48l47 24 24 23 24 48 24 95v119l-24 95-24 48-24 24-47 24h-48l-47-24-24-24-24-48-24-95v-119l24-95 24-48 24-23z"/><path d="m60749 30226h48l48 24 23 23 24 48 24 95v119l-24 95-24 48-23 24-48 24h-48l-47-24-24-24-24-48-24-95v-119l24-95 24-48 24-23z"/><path d="m61130 30726v-500"/><path d="m61178 30535 143 191"/><path d="m61321 30392-191 191"/></g></g></g><g fill="#006464" stroke="#006464"><path d="m46283.156 13904h2000v800h-2000z" fill="none" stroke="#840000" stroke-width="100"/><g fill-opacity="0" stroke-width="60" transform="translate(-13216.844 -11696)"><g fill="#840000" stroke="#840000"><path d="m59500 26000h-500"/><path d="m61500 26000h500"/></g><g fill="#006464" stroke="#006464"><text font-size="666.654" lengthAdjust="spacingAndGlyphs" opacity="0" text-anchor="middle" textLength="1036.1812" x="60499.961" y="23750">R7</text><path d="m60416 23726-167-238"/><path d="m60130 23726v-500h191l47 24 24 23 24 48v71l-24 48-24 24-47 24h-191"/><path d="m60583 23226h333l-214 500"/><text font-size="666.654" lengthAdjust="spacingAndGlyphs" opacity="0" text-anchor="middle" textLength="1893.3464" x="60499.961" y="24750">100k</text><path d="m59964 24726h-286"/><path d="m59821 24726v-500l-48 71-47 48-48 24"/><path d="m60273 24226h48l47 24 24 23 24 48 24 95v119l-24 95-24 48-24 24-47 24h-48l-47-24-24-24-24-48-24-95v-119l24-95 24-48 24-23z"/><path d="m60749 24226h48l48 24 23 23 24 48 24 95v119l-24 95-24 48-23 24-48 24h-48l-47-24-24-24-24-48-24-95v-119l24-95 24-48 24-23z"/><path d="m61130 24726v-500"/><path d="m61178 24535 143 191"/><path d="m61321 24392-191 191"/></g></g></g><g fill="#006464" stroke="#006464" transform="translate(-13216.844 -11696)"><g fill="none" stroke="#840000"><path d="m100700 21000 300-500"/><path d="m101000 21500v-1000"/><path d="m101000 20500 300 500"/></g><g fill="#006464" stroke="#006464"><text font-size="666.654" lengthAdjust="spacingAndGlyphs" opacity="0" text-anchor="middle" textLength="1583.8188" x="101000" y="19749.961">+5V</text><path d="m100357 19535h381"/><path d="m100547 19726v-381"/><path d="m101214 19226h-238l-24 238 24-24 47-24h119l48 24 24 24 24 47v119l-24 48-24 24-48 24h-119l-47-24-24-24"/><path d="m101380 19226 167 500 167-500"/></g></g><g fill="#006464" stroke="#006464" transform="translate(-13216.844 -11696)"><path d="m48000 33500 4000-2000-4000-2000z" fill="#ffffc2" fill-opacity=".6" fill-rule="evenodd" stroke="#ffffc2" stroke-width=".03937"/><g fill="none" fill-opacity="0" stroke="#840000" stroke-width="100"><path d="m48000 33500 4000-2000-4000-2000z"/><path d="m48000 33500 4000-2000-4000-2000z"/></g><g stroke-width="60"><path d="m48000 32500h-1000" fill="none" stroke="#840000"/><g fill="#006464" fill-opacity="0" stroke="#006464"><text font-size="666.654" lengthAdjust="spacingAndGlyphs" opacity="0" textLength="679.05511" x="48050" y="32750">+</text><path d="m48199 32535h381"/><path d="m48389 32726v-381"/></g><g fill="#a90000" fill-opacity="0" stroke="#a90000"><text font-size="666.654" lengthAdjust="spacingAndGlyphs" opacity="0" text-anchor="middle" textLength="1012.3622" x="47500" y="32400">12</text><path d="m47404 32376h-285"/><path d="m47261 32376v-500l-47 71-48 48-47 24"/><path d="m47595 31923 24-23 47-24h119l48 24 24 23 23 48v48l-23 71-286 286h309"/></g><path d="m48000 30500h-1000" fill="none" stroke="#840000"/><g fill="#006464" fill-opacity="0" stroke="#006464"><text font-size="666.654" lengthAdjust="spacingAndGlyphs" opacity="0" textLength="679.05511" x="48050" y="30750">-</text><path d="m48199 30535h381"/></g><g fill="#a90000" fill-opacity="0" stroke="#a90000"><text font-size="666.654" lengthAdjust="spacingAndGlyphs" opacity="0" text-anchor="middle" textLength="1012.3622" x="47500" y="30400">13</text><path d="m47404 30376h-285"/><path d="m47261 30376v-500l-47 71-48 48-47 24"/><path d="m47571 29876h309l-166 190h71l48 24 24 24 23 47v119l-23 48-24 24-48 24h-143l-47-24-24-24"/></g><path d="m52000 31500h1000" fill="none" stroke="#840000"/><g fill="#a90000" fill-opacity="0" stroke="#a90000"><text font-size="666.654" lengthAdjust="spacingAndGlyphs" opacity="0" text-anchor="middle" textLength="1012.3622" x="52500" y="31400">14</text><path d="m52404 31376h-285"/><path d="m52261 31376v-500l-47 71-48 48-47 24"/><path d="m52833 31042v334"/><path d="m52714 30852-119 357h309"/></g><g fill="#006464" fill-opacity="0" stroke="#006464"><text font-size="666.654" lengthAdjust="spacingAndGlyphs" opacity="0" text-anchor="middle" textLength="1560" x="50000" y="35750">U1D</text><path d="m49369 35226v404l23 48 24 24 48 24h95l48-24 23-24 24-48v-404"/><path d="m50154 35726h-285"/><path d="m50011 35726v-500l-47 71-48 48-47 24"/><path d="m50369 35726v-500h119l71 24 48 47 23 48 24 95v71l-24 96-23 47-48 48-71 24z"/><text font-size="666.654" lengthAdjust="spacingAndGlyphs" opacity="0" text-anchor="middle" textLength="2464.7637" x="50000" y="34750">LM324</text><path d="m49154 34726h-238v-500"/><path d="m49321 34726v-500l167 357 166-357v500"/><path d="m49845 34226h309l-166 190h71l48 24 23 24 24 47v119l-24 48-23 24-48 24h-143l-47-24-24-24"/><path d="m50345 34273 24-23 47-24h119l48 24 24 23 23 48v48l-23 71-286 286h309"/><path d="m51059 34392v334"/><path d="m50940 34202-119 357h309"/></g><g fill="#840084" fill-opacity="0" stroke="#840084"><text font-size="666.654" lengthAdjust="spacingAndGlyphs" opacity="0" text-anchor="middle" textLength="7179.0552" x="50000" y="28750">Voltage Follower 2</text><path d="m46488 28226 166 500 167-500"/><path d="m47059 28726-48-24-23-24-24-48v-142l24-48 23-24 48-24h71l48 24 24 24 24 48v142l-24 48-24 24-48 24z"/><path d="m47511 28726-47-24-24-48v-428"/><path d="m47630 28392h191"/><path d="m47702 28226v428l24 48 47 24h48"/><path d="m48202 28726v-262l-24-48-48-24h-95l-47 24"/><path d="m48202 28702-48 24h-119l-47-24-24-48v-47l24-48 47-24h119l48-24"/><path d="m48654 28392v405l-24 48-23 24-48 23h-71l-48-23"/><path d="m48654 28702-47 24h-96l-47-24-24-24-24-48v-142l24-48 24-24 47-24h96l47 24"/><path d="m49083 28702-48 24h-95l-48-24-23-48v-190l23-48 48-24h95l48 24 24 48v47l-238 48"/><path d="m49869 28464h-167"/><path d="m49702 28726v-500h238"/><path d="m50202 28726-48-24-24-24-23-48v-142l23-48 24-24 48-24h71l48 24 24 24 24 48v142l-24 48-24 24-48 24z"/><path d="m50654 28726-47-24-24-48v-428"/><path d="m50916 28726-47-24-24-48v-428"/><path d="m51178 28726-48-24-23-24-24-48v-142l24-48 23-24 48-24h72l47 24 24 24 24 48v142l-24 48-24 24-47 24z"/><path d="m51511 28392 96 334 95-238 95 238 95-334"/><path d="m52273 28702-47 24h-96l-47-24-24-48v-190l24-48 47-24h96l47 24 24 48v47l-238 48"/><path d="m52511 28726v-334"/><path d="m52511 28488 24-48 24-24 48-24h47"/><path d="m53178 28273 24-23 48-24h119l47 24 24 23 24 48v48l-24 71-286 286h310"/></g></g></g><g fill="#840084" stroke="#840084" transform="translate(-13216.844 -11696)"><path d="m14000 22500v500h500l-500 500-500-500h500" fill="none" stroke="#840000"/><g fill="#006464" fill-opacity="0" stroke="#006464"><text font-size="666.654" lengthAdjust="spacingAndGlyphs" opacity="0" text-anchor="middle" textLength="1583.8188" x="14000" y="24749.961">GND</text><path d="m13619 24249-48-23h-71l-72 23-48 48-23 48-24 95v71l24 96 23 47 48 48 72 24h47l72-24 23-24v-167h-95"/><path d="m13857 24726v-500l285 500v-500"/><path d="m14380 24726v-500h120l71 23 48 48 23 48 24 95v71l-24 96-23 47-48 48-71 24z"/></g></g><g fill="#006464" stroke="#006464"><path d="m52283.156 9404h2000v800h-2000z" fill="none" stroke="#840000" stroke-width="100"/><g fill-opacity="0" stroke-width="60" transform="translate(-13216.844 -11696)"><g fill="#840000" stroke="#840000"><path d="m65500 21500h-500"/><path d="m67500 21500h500"/></g><g fill="#006464" stroke="#006464"><text font-size="666.654" lengthAdjust="spacingAndGlyphs" opacity="0" text-anchor="middle" textLength="1512.3622" x="66500" y="19250">R10</text><path d="m66178 19226-167-238"/><path d="m65892 19226v-500h191l47 24 24 23 24 48v71l-24 48-24 24-47 24h-191"/><path d="m66654 19226h-285"/><path d="m66511 19226v-500l-47 71-48 48-47 24"/><path d="m66964 18726h47l48 24 24 23 24 48 23 95v119l-23 95-24 48-24 24-48 24h-47l-48-24-24-24-23-48-24-95v-119l24-95 23-48 24-23z"/><text font-size="666.654" lengthAdjust="spacingAndGlyphs" opacity="0" text-anchor="middle" textLength="1893.3464" x="66499.961" y="20250">470k</text><path d="m65916 19892v334"/><path d="m65797 19702-119 357h310"/><path d="m66130 19726h334l-215 500"/><path d="m66749 19726h48l48 24 23 23 24 48 24 95v119l-24 95-24 48-23 24-48 24h-48l-47-24-24-24-24-48-24-95v-119l24-95 24-48 24-23z"/><path d="m67130 20226v-500"/><path d="m67178 20035 143 191"/><path d="m67321 19892-191 191"/></g></g></g><g fill="#006464" stroke="#006464" transform="translate(-13216.844 -11696)"><path d="m48000 20500 4000 2000-4000 2000z" fill="#ffffc2" fill-opacity=".6" fill-rule="evenodd" stroke="#ffffc2" stroke-width=".03937"/><g fill="none" fill-opacity="0" stroke="#840000" stroke-width="100"><path d="m48000 20500 4000 2000-4000 2000z"/><path d="m48000 20500 4000 2000-4000 2000z"/></g><g stroke-width="60"><path d="m52000 22500h1000" fill="none" stroke="#840000"/><g fill="#a90000" fill-opacity="0" stroke="#a90000"><text font-size="666.654" lengthAdjust="spacingAndGlyphs" opacity="0" text-anchor="middle" textLength="536.18109" x="52500" y="22400">1</text><path d="m52642 22376h-285"/><path d="m52500 22376v-500l-48 71-48 48-47 24"/></g><path d="m48000 23500h-1000" fill="none" stroke="#840000"/><g fill="#006464" fill-opacity="0" stroke="#006464"><text font-size="666.654" lengthAdjust="spacingAndGlyphs" opacity="0" textLength="679.05511" x="48050" y="23750">-</text><path d="m48199 23535h381"/></g><g fill="#a90000" fill-opacity="0" stroke="#a90000"><text font-size="666.654" lengthAdjust="spacingAndGlyphs" opacity="0" text-anchor="middle" textLength="536.18109" x="47500" y="23400">2</text><path d="m47357 22923 23-23 48-24h119l48 24 24 23 23 48v48l-23 71-286 286h309"/></g><path d="m48000 21500h-1000" fill="none" stroke="#840000"/><g fill="#006464" fill-opacity="0" stroke="#006464"><text font-size="666.654" lengthAdjust="spacingAndGlyphs" opacity="0" textLength="679.05511" x="48050" y="21750">+</text><path d="m48199 21535h381"/><path d="m48389 21726v-381"/></g><g fill="#a90000" fill-opacity="0" stroke="#a90000"><text font-size="666.654" lengthAdjust="spacingAndGlyphs" opacity="0" text-anchor="middle" textLength="536.18109" x="47500" y="21400">3</text><path d="m47333 20876h309l-166 190h71l48 24 24 24 23 47v119l-23 48-24 24-48 24h-143l-47-24-24-24"/></g><g fill="#006464" fill-opacity="0" stroke="#006464"><text font-size="666.654" lengthAdjust="spacingAndGlyphs" opacity="0" text-anchor="middle" textLength="1488.5826" x="50000" y="18749.961">U1A</text><path d="m49404 18226v404l24 48 24 24 48 24h95l47-24 24-24 24-48v-404"/><path d="m50190 18726h-286"/><path d="m50047 18726v-500l-47 71-48 48-48 23"/><path d="m50380 18583h239"/><path d="m50333 18726 167-500 166 500"/><text font-size="666.654" lengthAdjust="spacingAndGlyphs" opacity="0" text-anchor="middle" textLength="2464.7637" x="50000" y="19749.961">LM324</text><path d="m49154 19726h-238v-500"/><path d="m49321 19726v-500l167 357 166-357v500"/><path d="m49845 19226h309l-166 190h71l48 24 23 24 24 47v119l-24 48-23 24-48 24h-143l-47-24-24-24"/><path d="m50345 19273 24-24 47-23h119l48 23 24 24 23 48v47l-23 72-286 286h309"/><path d="m51059 19392v334"/><path d="m50940 19202-119 357h309"/></g><g fill="#840084" fill-opacity="0" stroke="#840084"><text font-size="666.654" lengthAdjust="spacingAndGlyphs" opacity="0" text-anchor="middle" textLength="7179.0552" x="50000" y="25249.961">Voltage Follower 1</text><path d="m46488 24726 166 500 167-500"/><path d="m47059 25226-48-24-23-24-24-48v-142l24-48 23-24 48-24h71l48 24 24 24 24 48v142l-24 48-24 24-48 24z"/><path d="m47511 25226-47-24-24-48v-428"/><path d="m47630 24892h191"/><path d="m47702 24726v428l24 48 47 24h48"/><path d="m48202 25226v-262l-24-48-48-24h-95l-47 24"/><path d="m48202 25202-48 24h-119l-47-24-24-48v-47l24-48 47-24h119l48-24"/><path d="m48654 24892v405l-24 48-23 23-48 24h-71l-48-24"/><path d="m48654 25202-47 24h-96l-47-24-24-24-24-48v-142l24-48 24-24 47-24h96l47 24"/><path d="m49083 25202-48 24h-95l-48-24-23-48v-190l23-48 48-24h95l48 24 24 48v47l-238 48"/><path d="m49869 24964h-167"/><path d="m49702 25226v-500h238"/><path d="m50202 25226-48-24-24-24-23-48v-142l23-48 24-24 48-24h71l48 24 24 24 24 48v142l-24 48-24 24-48 24z"/><path d="m50654 25226-47-24-24-48v-428"/><path d="m50916 25226-47-24-24-48v-428"/><path d="m51178 25226-48-24-23-24-24-48v-142l24-48 23-24 48-24h72l47 24 24 24 24 48v142l-24 48-24 24-47 24z"/><path d="m51511 24892 96 334 95-238 95 238 95-334"/><path d="m52273 25202-47 24h-96l-47-24-24-48v-190l24-48 47-24h96l47 24 24 48v47l-238 48"/><path d="m52511 25226v-334"/><path d="m52511 24988 24-48 24-24 48-24h47"/><path d="m53464 25226h-286"/><path d="m53321 25226v-500l-48 71-47 48-48 23"/></g></g></g><g fill="#840084" stroke="#840084" transform="translate(-13216.844 -11696)"><path d="m65000 29000 4000-2000-4000-2000z" fill="#ffffc2" fill-opacity=".6" fill-rule="evenodd" stroke="#ffffc2" stroke-width=".03937"/><g fill="none" fill-opacity="0" stroke="#840000" stroke-width="100"><path d="m65000 29000 4000-2000-4000-2000z"/><path d="m65000 29000 4000-2000-4000-2000z"/></g><g stroke-width="60"><path d="m65000 28000h-1000" fill="none" stroke="#840000"/><g fill="#006464" fill-opacity="0" stroke="#006464"><text font-size="666.654" lengthAdjust="spacingAndGlyphs" opacity="0" textLength="679.05511" x="65050" y="28250">+</text><path d="m65199 28035h381"/><path d="m65389 28226v-381"/></g><g fill="#a90000" fill-opacity="0" stroke="#a90000"><text font-size="666.654" lengthAdjust="spacingAndGlyphs" opacity="0" text-anchor="middle" textLength="536.18109" x="64500" y="27900">5</text><path d="m64619 27376h-239l-23 238 23-24 48-24h119l48 24 24 24 23 47v119l-23 48-24 24-48 24h-119l-48-24-23-24"/></g><path d="m65000 26000h-1000" fill="none" stroke="#840000"/><g fill="#006464" fill-opacity="0" stroke="#006464"><text font-size="666.654" lengthAdjust="spacingAndGlyphs" opacity="0" textLength="679.05511" x="65050" y="26250">-</text><path d="m65199 26035h381"/></g><g fill="#a90000" fill-opacity="0" stroke="#a90000"><text font-size="666.654" lengthAdjust="spacingAndGlyphs" opacity="0" text-anchor="middle" textLength="536.18109" x="64500" y="25900">6</text><path d="m64595 25376h-95l-48 24-24 23-48 72-23 95v190l23 48 24 24 48 24h95l48-24 24-24 23-48v-119l-23-47-24-24-48-24h-95l-48 24-24 24-23 47"/></g><path d="m69000 27000h1000" fill="none" stroke="#840000"/><g fill="#a90000" fill-opacity="0" stroke="#a90000"><text font-size="666.654" lengthAdjust="spacingAndGlyphs" opacity="0" text-anchor="middle" textLength="536.18109" x="69500" y="26900">7</text><path d="m69333 26376h333l-214 500"/></g><g fill="#006464" fill-opacity="0" stroke="#006464"><text font-size="666.654" lengthAdjust="spacingAndGlyphs" opacity="0" text-anchor="middle" textLength="1560" x="67000" y="23250">U1B</text><path d="m66369 22726v404l23 48 24 24 48 24h95l48-24 23-24 24-48v-404"/><path d="m67154 23226h-285"/><path d="m67011 23226v-500l-47 71-48 48-47 24"/><path d="m67535 22964 72 24 23 23 24 48v71l-24 48-23 24-48 24h-190v-500h166l48 24 24 23 23 48v48l-23 47-24 24-48 24h-166"/><text font-size="666.654" lengthAdjust="spacingAndGlyphs" opacity="0" text-anchor="middle" textLength="2464.7637" x="67000" y="24250">LM324</text><path d="m66154 24226h-238v-500"/><path d="m66321 24226v-500l167 357 166-357v500"/><path d="m66845 23726h309l-166 190h71l48 24 23 24 24 47v119l-24 48-23 24-48 24h-143l-47-24-24-24"/><path d="m67345 23773 24-23 47-24h119l48 24 24 23 23 48v48l-23 71-286 286h309"/><path d="m68059 23892v334"/><path d="m67940 23702-119 357h309"/></g><g fill="#840084" fill-opacity="0" stroke="#840084"><text font-size="666.654" lengthAdjust="spacingAndGlyphs" opacity="0" text-anchor="middle" textLength="7917.126" x="68000" y="29750">Differential Amplifier</text><path d="m64190 29726v-500h119l71 24 48 47 24 48 24 95v71l-24 96-24 47-48 48-71 24z"/><path d="m64690 29726v-334"/><path d="m64690 29226-24 24 24 23 24-23-24-24v47"/><path d="m64857 29392h190"/><path d="m64928 29726v-429l24-47 48-24h47"/><path d="m65142 29392h191"/><path d="m65214 29726v-429l24-47 47-24h48"/><path d="m65690 29702-48 24h-95l-47-24-24-48v-190l24-48 47-24h95l48 24 24 48v47l-238 48"/><path d="m65928 29726v-334"/><path d="m65928 29488 24-48 24-24 47-24h48"/><path d="m66428 29702-48 24h-95l-47-24-24-48v-190l24-48 47-24h95l48 24 24 48v47l-238 48"/><path d="m66666 29392v334"/><path d="m66666 29440 24-24 48-24h71l48 24 23 48v262"/><path d="m67047 29392h191"/><path d="m67119 29226v428l23 48 48 24h48"/><path d="m67404 29726v-334"/><path d="m67404 29226-24 24 24 23 24-23-24-24v47"/><path d="m67857 29726v-262l-24-48-48-24h-95l-48 24"/><path d="m67857 29702-48 24h-119l-48-24-23-48v-47l23-48 48-24h119l48-24"/><path d="m68166 29726-47-24-24-48v-428"/><path d="m68714 29583h238"/><path d="m68666 29726 167-500 167 500"/><path d="m69166 29726v-334"/><path d="m69166 29440 24-24 48-24h71l48 24 23 48v262"/><path d="m69380 29464 24-48 48-24h71l48 24 24 48v262"/><path d="m69833 29392v500"/><path d="m69833 29416 47-24h96l47 24 24 24 24 48v142l-24 48-24 24-47 24h-96l-47-24"/><path d="m70357 29726-48-24-24-48v-428"/><path d="m70547 29726v-334"/><path d="m70547 29226-24 24 24 23 24-23-24-24v47"/><path d="m70714 29392h190"/><path d="m70785 29726v-429l24-47 48-24h47"/><path d="m71071 29726v-334"/><path d="m71071 29226-24 24 24 23 24-23-24-24v47"/><path d="m71500 29702-48 24h-95l-48-24-24-48v-190l24-48 48-24h95l48 24 23 48v47l-238 48"/><path d="m71738 29726v-334"/><path d="m71738 29488 23-48 24-24 48-24h47"/></g></g></g><g fill="#840084" stroke="#840084"><g stroke="#840000"><path d="m18000 15900v1100" fill="none" stroke-width="60" transform="translate(-13216.844 -11696)"/><g fill="none" fill-opacity="0" stroke-width="100" transform="translate(-13216.844 -11696)"><path d="m17250 15900h1500"/><path d="m18500 15700h400"/><path d="m17800 15700h400"/><path d="m17100 15700h400"/></g><g fill="none" fill-opacity="0" stroke-width="60" transform="translate(-13216.844 -11696)"><path d="m17000 15000h300"/><path d="m19000 15000h-1000v700"/><path d="m18700 15700v-1000h-1400v1000"/></g><path d="m18000 15600-150-400h300z" fill="#840000" fill-opacity="1" fill-rule="evenodd" stroke-width="60" transform="translate(-13216.844 -11696)"/><g fill="none" fill-opacity="0" stroke-width="60" transform="translate(-13216.844 -11696)"><path d="m17800 14900 50-50v-300l50-50"/><path d="m17850 14700 250 150v-300z"/></g><circle cx="4783.156" cy="3654" fill="none" r="1100" stroke-width="100"/><g fill="#840000" fill-opacity="1" stroke-width="60"><circle cx="5483.156" cy="3304" r="100"/><circle cx="4083.156" cy="3304" r="100"/></g><path d="m19000 15000h1000" fill="none" stroke-width="60" transform="translate(-13216.844 -11696)"/></g><g fill="#a90000" fill-opacity="0" stroke="#a90000" stroke-width="60" transform="translate(-13216.844 -11696)"><text font-size="666.654" lengthAdjust="spacingAndGlyphs" opacity="0" text-anchor="middle" textLength="536.18109" x="19500" y="14900">1</text><path d="m19642 14876h-285"/><path d="m19500 14876v-500l-48 71-48 48-47 24"/></g><path d="m18000 17000v1000" fill="none" stroke="#840000" stroke-width="60" transform="translate(-13216.844 -11696)"/><g fill="#a90000" fill-opacity="0" stroke="#a90000" stroke-width="60" transform="translate(-13216.844 -11696)"><text font-size="666.654" lengthAdjust="spacingAndGlyphs" opacity="0" text-anchor="middle" textLength="536.18109" transform="matrix(0 -1 1 0 400 35400)" x="17900" y="17500">2</text><path d="m17423 17642-23-23-24-48v-119l24-48 23-24 48-23h48l71 23 286 286v-309"/></g><path d="m17000 15000h-1000" fill="none" stroke="#840000" stroke-width="60" transform="translate(-13216.844 -11696)"/><g fill="#a90000" fill-opacity="0" stroke="#a90000" stroke-width="60" transform="translate(-13216.844 -11696)"><text font-size="666.654" lengthAdjust="spacingAndGlyphs" opacity="0" text-anchor="middle" textLength="536.18109" x="16500" y="14900">3</text><path d="m16333 14376h309l-166 190h71l48 24 24 24 23 47v119l-23 48-24 24-48 24h-143l-47-24-24-24"/></g><g fill="#006464" fill-opacity="0" stroke="#006464" stroke-width="60" transform="translate(-13216.844 -11696)"><text font-size="666.654" lengthAdjust="spacingAndGlyphs" opacity="0" text-anchor="middle" textLength="1060" x="18000" y="12250">Q1</text><path d="m17952 12273-48-23-47-48-72-72-47-23h-48"/><path d="m17714 12226-48-24-47-48-24-95v-167l24-95 47-47 48-24h95l48 24 47 47 24 95v167l-24 95-47 48-48 24z"/><path d="m18404 12226h-285"/><path d="m18261 12226v-500l-47 71-48 48-47 24"/><text font-size="666.654" lengthAdjust="spacingAndGlyphs" opacity="0" text-anchor="middle" textLength="2964.7637" x="17999.961" y="13250">2N7000</text><path d="m16642 12773 24-23 48-24h119l47 24 24 23 24 48v48l-24 71-286 286h310"/><path d="m17142 13226v-500l286 500v-500"/><path d="m17618 12726h334l-214 500"/><path d="m18238 12726h47l48 24 24 23 23 48 24 95v119l-24 95-23 48-24 24-48 24h-47l-48-24-24-24-24-48-24-95v-119l24-95 24-48 24-23z"/><path d="m18714 12726h47l48 24 24 23 24 48 23 95v119l-23 95-24 48-24 24-48 24h-47l-48-24-24-24-24-48-23-95v-119l23-95 24-48 24-23z"/><path d="m19190 12726h48l47 24 24 23 24 48 24 95v119l-24 95-24 48-24 24-47 24h-48l-48-24-24-24-23-48-24-95v-119l24-95 23-48 24-23z"/></g></g><g fill="#006464" stroke="#006464" transform="translate(-13216.844 -11696)"><g fill="none" stroke="#840000"><path d="m14700 13500 300-500"/><path d="m15000 14000v-1000"/><path d="m15000 13000 300 500"/></g><g fill="#006464" stroke="#006464"><text font-size="666.654" lengthAdjust="spacingAndGlyphs" opacity="0" text-anchor="middle" textLength="1583.8188" x="15000" y="12249.961">+5V</text><path d="m14357 12035h381"/><path d="m14547 12226v-381"/><path d="m15214 11726h-238l-24 238 24-24 47-24h119l48 24 24 24 24 47v119l-24 48-24 24-48 24h-119l-47-24-24-24"/><path d="m15380 11726 167 500 167-500"/></g></g><g fill="#006464" stroke="#006464"><path d="m14383.156 19304h800v2000h-800z" fill="none" stroke="#840000" stroke-width="100"/><g fill-opacity="0" stroke-width="60" transform="translate(-13216.844 -11696)"><g fill="#840000" stroke="#840000"><path d="m29000 31400v-400h-400 400l-1800 1800" fill="none" stroke="#840000" stroke-linecap="round" stroke-linejoin="round" stroke-width="60"/><path d="m28000 31000v-500"/><path d="m28000 33000v500"/></g><g fill="#006464" stroke="#006464"><text font-size="666.654" lengthAdjust="spacingAndGlyphs" opacity="0" text-anchor="middle" textLength="1036.1812" x="30019.33" y="31749.922">R4</text><path d="m29935 31726-166-239"/><path d="m29650 31726v-500h190l48 23 24 24 23 48v71l-23 48-24 24-48 23h-190"/><path d="m30364 31392v334"/><path d="m30245 31202-119 357h309"/><text font-size="666.654" lengthAdjust="spacingAndGlyphs" opacity="0" text-anchor="middle" textLength="2536.1812" x="30769.33" y="32749.922">PROBE</text><path d="m29650 32726v-500h190l48 23 24 24 23 48v71l-23 48-24 24-48 23h-190"/><path d="m30435 32726-166-239"/><path d="m30150 32726v-500h190l48 23 24 24 23 48v71l-23 48-24 24-48 23h-190"/><path d="m30745 32226h95l48 23 47 48 24 95v167l-24 95-47 48-48 24h-95l-48-24-47-48-24-95v-167l24-95 47-48z"/><path d="m31340 32464 72 23 23 24 24 48v71l-24 48-23 24-48 24h-190v-500h166l48 23 24 24 23 48v47l-23 48-24 24-48 24h-166"/><path d="m31674 32464h166"/><path d="m31912 32726h-238v-500h238"/></g></g></g><g fill="#006464" stroke="#006464"><path d="m49383.156 18304h800v2000h-800z" fill="none" stroke="#840000" stroke-width="100"/><g fill-opacity="0" stroke-width="60" transform="translate(-13216.844 -11696)"><g fill="#840000" stroke="#840000"><path d="m63000 30000v-500"/><path d="m63000 32000v500"/></g><g fill="#006464" stroke="#006464"><text font-size="666.654" lengthAdjust="spacingAndGlyphs" opacity="0" text-anchor="middle" textLength="1036.1812" x="64519.332" y="30749.922">R9</text><path d="m64435 30726-166-239"/><path d="m64150 30726v-500h190l48 23 24 24 23 48v71l-23 48-24 24-48 23h-190"/><path d="m64674 30726h95l47-24 24-24 48-71 24-96v-190l-24-48-24-24-48-23h-95l-47 23-24 24-24 48v119l24 47 24 24 47 24h95l48-24 24-24 24-47"/><text font-size="666.654" lengthAdjust="spacingAndGlyphs" opacity="0" text-anchor="middle" textLength="1893.3464" x="64947.914" y="31749.922">470k</text><path d="m64364 31392v334"/><path d="m64245 31202-119 357h309"/><path d="m64578 31226h334l-215 500"/><path d="m65197 31226h48l48 23 23 24 24 48 24 95v119l-24 95-24 48-23 24-48 24h-48l-47-24-24-24-24-48-24-95v-119l24-95 24-48 24-24z"/><path d="m65578 31726v-500"/><path d="m65626 31535 143 191"/><path d="m65769 31392-191 191"/></g></g></g><g fill="#006464" stroke="#006464" transform="translate(-13216.844 -11696)"><path d="m31000 34500v500h500l-500 500-500-500h500" fill="none" stroke="#840000"/><g fill="#006464" fill-opacity="0" stroke="#006464"><text font-size="666.654" lengthAdjust="spacingAndGlyphs" opacity="0" text-anchor="middle" textLength="1583.8188" x="31000" y="36749.96100000001">GND</text><path d="m30619 36249-48-23h-71l-72 23-48 48-23 48-24 95v71l24 96 23 47 48 48 72 24h47l72-24 23-24v-167h-95"/><path d="m30857 36726v-500l285 500v-500"/><path d="m31380 36726v-500h120l71 23 48 48 23 48 24 95v71l-24 96-23 47-48 48-71 24z"/></g></g><g fill="#006464" stroke="#006464" transform="translate(-13216.844 -11696)"><path d="m101000 34500v500h500l-500 500-500-500h500" fill="none" stroke="#840000"/><g fill="#006464" fill-opacity="0" stroke="#006464"><text font-size="666.654" lengthAdjust="spacingAndGlyphs" opacity="0" text-anchor="middle" textLength="1583.8188" x="101000" y="36749.96100000001">GND</text><path d="m100619 36249-48-23h-71l-72 23-48 48-23 48-24 95v71l24 96 23 47 48 48 72 24h47l72-24 23-24v-167h-95"/><path d="m100857 36726v-500l285 500v-500"/><path d="m101380 36726v-500h120l71 23 48 48 23 48 24 95v71l-24 96-23 47-48 48-71 24z"/></g></g><g fill="#006464" stroke="#006464"><path d="m4383.156 7304h800v2000h-800z" fill="none" stroke="#840000" stroke-width="100"/><g fill-opacity="0" stroke-width="60" transform="translate(-13216.844 -11696)"><g fill="#840000" stroke="#840000"><path d="m18000 19000v-500"/><path d="m18000 21000v500"/></g><g fill="#006464" stroke="#006464"><text font-size="666.654" lengthAdjust="spacingAndGlyphs" opacity="0" text-anchor="middle" textLength="1036.1812" x="19519.33" y="19749.922">R2</text><path d="m19435 19726-166-239"/><path d="m19150 19726v-500h190l48 23 24 24 23 48v71l-23 48-24 24-48 23h-190"/><path d="m19626 19273 24-24 47-23h119l48 23 24 24 24 48v47l-24 72-286 286h310"/><text font-size="666.654" lengthAdjust="spacingAndGlyphs" opacity="0" text-anchor="middle" textLength="940.94489" x="19471.732" y="20749.922">1k</text><path d="m19412 20726h-286"/><path d="m19269 20726v-500l-48 71-47 48-48 23"/><path d="m19626 20726v-500"/><path d="m19674 20535 142 191"/><path d="m19816 20392-190 191"/></g></g></g><g fill="#006464" stroke="#006464"><path d="m82783.156 11304h10000v10000h-10000z" fill="#ffffc2" fill-opacity=".6" stroke="#ffffc2" stroke-width=".03937"/><g fill="#840000" fill-opacity="0" stroke="#840000" stroke-width="100"><path d="m82783.156 11304h10000v10000h-10000z"/><path d="m82783.156 11304h10000v10000h-10000z"/></g><g stroke-width="60" transform="translate(-13216.844 -11696)"><path d="m96000 30000h-1000" fill="none" stroke="#840000"/><g fill="#006464" fill-opacity="0" stroke="#006464"><text font-size="666.654" lengthAdjust="spacingAndGlyphs" opacity="0" textLength="4321.8896" x="96200" y="30250">~{RESET}/PB5</text><path d="m96230 29585h500"/><path d="m96634 30226-166-238"/><path d="m96349 30226v-500h190l48 24 23 23 24 48v71l-24 48-23 24-48 24h-190"/><path d="m96730 29585h452"/><path d="m96849 29964h166"/><path d="m97087 30226h-238v-500h238"/><path d="m97182 29585h476"/><path d="m97277 30202 72 24h119l47-24 24-24 24-48v-47l-24-48-24-24-47-23-96-24-47-24-24-24-24-47v-48l24-48 24-23 47-24h119l72 24"/><path d="m97658 29585h452"/><path d="m97777 29964h167"/><path d="m98015 30226h-238v-500h238"/><path d="m98110 29585h381"/><path d="m98158 29726h286"/><path d="m98301 30226v-500"/><path d="m98968 29702-429 643"/><path d="m99134 30226v-500h191l47 24 24 23 24 48v71l-24 48-24 24-47 24h-191"/><path d="m99801 29964 71 24 24 23 24 48v71l-24 48-24 24-47 24h-191v-500h167l48 24 23 23 24 48v48l-24 47-23 24-48 24h-167"/><path d="m100372 29726h-238l-24 238 24-24 48-24h119l48 24 23 24 24 47v119l-24 48-23 24-48 24h-119l-48-24-24-24"/></g><g fill="#a90000" fill-opacity="0" stroke="#a90000"><text font-size="666.654" lengthAdjust="spacingAndGlyphs" opacity="0" text-anchor="middle" textLength="536.18109" x="95500" y="29900">1</text><path d="m95642 29876h-285"/><path d="m95500 29876v-500l-48 71-48 48-47 24"/></g><path d="m96000 28000h-1000" fill="none" stroke="#840000"/><g fill="#006464" fill-opacity="0" stroke="#006464"><text font-size="666.654" lengthAdjust="spacingAndGlyphs" opacity="0" textLength="4226.6533" x="96200" y="28250">XTAL1/PB3</text><path d="m96301 27726 333 500"/><path d="m96634 27726-333 500"/><path d="m96753 27726h286"/><path d="m96896 28226v-500"/><path d="m97182 28083h238"/><path d="m97134 28226 167-500 167 500"/><path d="m97872 28226h-238v-500"/><path d="m98301 28226h-286"/><path d="m98158 28226v-500l-48 71-47 48-48 24"/><path d="m98872 27702-428 643"/><path d="m99039 28226v-500h191l47 24 24 23 24 48v71l-24 48-24 24-47 24h-191"/><path d="m99706 27964 71 24 24 23 24 48v71l-24 48-24 24-47 24h-191v-500h167l47 24 24 23 24 48v48l-24 47-24 24-47 24h-167"/><path d="m99991 27726h310l-167 190h72l47 24 24 24 24 47v119l-24 48-24 24-47 24h-143l-48-24-24-24"/></g><g fill="#a90000" fill-opacity="0" stroke="#a90000"><text font-size="666.654" lengthAdjust="spacingAndGlyphs" opacity="0" text-anchor="middle" textLength="536.18109" x="95500" y="27900">2</text><path d="m95357 27423 23-23 48-24h119l48 24 24 23 23 48v48l-23 71-286 286h309"/></g><path d="m96000 29000h-1000" fill="none" stroke="#840000"/><g fill="#006464" fill-opacity="0" stroke="#006464"><text font-size="666.654" lengthAdjust="spacingAndGlyphs" opacity="0" textLength="4226.6533" x="96200" y="29250">XTAL2/PB4</text><path d="m96301 28726 333 500"/><path d="m96634 28726-333 500"/><path d="m96753 28726h286"/><path d="m96896 29226v-500"/><path d="m97182 29083h238"/><path d="m97134 29226 167-500 167 500"/><path d="m97872 29226h-238v-500"/><path d="m98015 28773 24-23 48-24h119l47 24 24 23 24 48v48l-24 71-286 286h310"/><path d="m98872 28702-428 643"/><path d="m99039 29226v-500h191l47 24 24 23 24 48v71l-24 48-24 24-47 24h-191"/><path d="m99706 28964 71 24 24 23 24 48v71l-24 48-24 24-47 24h-191v-500h167l47 24 24 23 24 48v48l-24 47-24 24-47 24h-167"/><path d="m100253 28892v334"/><path d="m100134 28702-119 357h310"/></g><g fill="#a90000" fill-opacity="0" stroke="#a90000"><text font-size="666.654" lengthAdjust="spacingAndGlyphs" opacity="0" text-anchor="middle" textLength="536.18109" x="95500" y="28900">3</text><path d="m95333 28376h309l-166 190h71l48 24 24 24 23 47v119l-23 48-24 24-48 24h-143l-47-24-24-24"/></g><path d="m101000 33000v1000" fill="none" stroke="#840000"/><g fill="#006464" fill-opacity="0" stroke="#006464"><text font-size="666.654" lengthAdjust="spacingAndGlyphs" opacity="0" textLength="1583.8188" transform="matrix(0 -1 1 0 68200 133800)" x="101000" y="33050">GND</text><path d="m100750 32389-24 47v72l24 71 47 48 48 23 95 24h71l96-24 47-23 48-48 24-71v-48l-24-71-24-24h-167v95"/><path d="m101226 32150h-500l500-285h-500"/><path d="m101226 31627h-500v-119l24-72 47-47 48-24 95-24h71l96 24 47 24 48 47 24 72z"/></g><g fill="#a90000" fill-opacity="0" stroke="#a90000"><text font-size="666.654" lengthAdjust="spacingAndGlyphs" opacity="0" text-anchor="middle" textLength="536.18109" transform="matrix(0 -1 1 0 67400 134400)" x="100900" y="33500">4</text><path d="m100542 33404h334"/><path d="m100352 33523 357 119v-309"/></g><path d="m96000 25000h-1000" fill="none" stroke="#840000"/><g fill="#006464" fill-opacity="0" stroke="#006464"><text font-size="666.654" lengthAdjust="spacingAndGlyphs" opacity="0" textLength="3869.5276" x="96200" y="25250">AREF/PB0</text><path d="m96325 25083h238"/><path d="m96277 25226 167-500 166 500"/><path d="m97063 25226-167-238"/><path d="m96777 25226v-500h191l47 24 24 23 24 48v71l-24 48-24 24-47 24h-191"/><path d="m97277 24964h167"/><path d="m97515 25226h-238v-500h238"/><path d="m97896 24964h-166"/><path d="m97730 25226v-500h238"/><path d="m98515 24702-428 643"/><path d="m98682 25226v-500h190l48 24 24 23 24 48v71l-24 48-24 24-48 24h-190"/><path d="m99349 24964 71 24 24 23 24 48v71l-24 48-24 24-48 24h-190v-500h167l47 24 24 23 24 48v48l-24 47-24 24-47 24h-167"/><path d="m99777 24726h48l47 24 24 23 24 48 24 95v119l-24 95-24 48-24 24-47 24h-48l-47-24-24-24-24-48-24-95v-119l24-95 24-48 24-23z"/></g><g fill="#a90000" fill-opacity="0" stroke="#a90000"><text font-size="666.654" lengthAdjust="spacingAndGlyphs" opacity="0" text-anchor="middle" textLength="536.18109" x="95500" y="24900">5</text><path d="m95619 24376h-239l-23 238 23-24 48-24h119l48 24 24 24 23 47v119l-23 48-24 24-48 24h-119l-48-24-23-24"/></g><path d="m96000 26000h-1000" fill="none" stroke="#840000"/><g fill="#006464" fill-opacity="0" stroke="#006464"><text font-size="666.654" lengthAdjust="spacingAndGlyphs" opacity="0" textLength="1536.1812" x="96200" y="26250">PB1</text><path d="m96349 26226v-500h190l48 24 23 23 24 48v71l-24 48-23 24-48 24h-190"/><path d="m97015 25964 72 24 23 23 24 48v71l-24 48-23 24-48 24h-190v-500h166l48 24 24 23 23 48v48l-23 47-24 24-48 24h-166"/><path d="m97610 26226h-285"/><path d="m97468 26226v-500l-48 71-48 48-47 24"/></g><g fill="#a90000" fill-opacity="0" stroke="#a90000"><text font-size="666.654" lengthAdjust="spacingAndGlyphs" opacity="0" text-anchor="middle" textLength="536.18109" x="95500" y="25900">6</text><path d="m95595 25376h-95l-48 24-24 23-48 72-23 95v190l23 48 24 24 48 24h95l48-24 24-24 23-48v-119l-23-47-24-24-48-24h-95l-48 24-24 24-23 47"/></g><path d="m96000 27000h-1000" fill="none" stroke="#840000"/><g fill="#006464" fill-opacity="0" stroke="#006464"><text font-size="666.654" lengthAdjust="spacingAndGlyphs" opacity="0" textLength="1536.1812" x="96200" y="27250">PB2</text><path d="m96349 27226v-500h190l48 24 23 23 24 48v71l-24 48-23 24-48 24h-190"/><path d="m97015 26964 72 24 23 23 24 48v71l-24 48-23 24-48 24h-190v-500h166l48 24 24 23 23 48v48l-23 47-24 24-48 24h-166"/><path d="m97325 26773 24-23 47-24h119l48 24 24 23 23 48v48l-23 71-286 286h309"/></g><g fill="#a90000" fill-opacity="0" stroke="#a90000"><text font-size="666.654" lengthAdjust="spacingAndGlyphs" opacity="0" text-anchor="middle" textLength="536.18109" x="95500" y="26900">7</text><path d="m95333 26376h333l-214 500"/></g><path d="m101000 23000v-1000" fill="none" stroke="#840000"/><g fill="#006464" fill-opacity="0" stroke="#006464"><text font-size="666.654" lengthAdjust="spacingAndGlyphs" opacity="0" text-anchor="end" textLength="1488.5826" transform="matrix(0 -1 1 0 77800 124200)" x="101000" y="23450">VCC</text><path d="m100726 24610 500-166-500-167"/><path d="m101178 23825 24 24 24 71v48l-24 71-48 48-47 23-96 24h-71l-95-24-48-23-47-48-24-71v-48l24-71 23-24"/><path d="m101178 23325 24 24 24 71v48l-24 71-48 48-47 23-96 24h-71l-95-24-48-23-47-48-24-71v-48l24-71 23-24"/></g><g fill="#a90000" fill-opacity="0" stroke="#a90000"><text font-size="666.654" lengthAdjust="spacingAndGlyphs" opacity="0" text-anchor="middle" textLength="536.18109" transform="matrix(0 -1 1 0 78400 123400)" x="100900" y="22500">8</text><path d="m100590 22547-24 48-24 24-47 23h-24l-48-23-23-24-24-48v-95l24-48 23-24 48-23h24l47 23 24 24 24 48v95l24 48 24 24 47 23h95l48-23 24-24 24-48v-95l-24-48-24-24-48-23h-95l-47 23-24 24-24 48"/></g><g fill="#006464" fill-opacity="0" stroke="#006464"><text font-size="666.654" lengthAdjust="spacingAndGlyphs" opacity="0" text-anchor="middle" textLength="1060" x="107031.26" y="27749.922">U2</text><path d="m106650 27226v404l24 48 23 24 48 24h95l48-24 24-24 23-48v-404"/><path d="m107150 27273 24-24 47-23h119l48 23 24 24 23 48v47l-23 72-286 286h309"/><text font-size="666.654" lengthAdjust="spacingAndGlyphs" opacity="0" text-anchor="middle" textLength="5250.4727" x="109126.49" y="28749.922">ATtiny85-20P</text><path d="m106626 28583h238"/><path d="m106578 28726 167-500 167 500"/><path d="m107007 28226h286"/><path d="m107150 28726v-500"/><path d="m107388 28392h190"/><path d="m107459 28226v428l24 48 48 24h47"/><path d="m107745 28726v-334"/><path d="m107745 28226-24 23 24 24 24-24-24-23v47"/><path d="m107983 28392v334"/><path d="m107983 28440 24-24 48-24h71l48 24 23 48v262"/><path d="m108388 28392 119 334"/><path d="m108626 28392-119 334-48 119-24 23-47 24"/><path d="m108888 28440-48-24-24-24-23-47v-24l23-48 24-24 48-23h95l48 23 24 24 23 48v24l-23 47-24 24-48 24h-95l-48 24-24 23-23 48v95l23 48 24 24 48 24h95l48-24 24-24 23-48v-95l-23-48-24-23-48-24"/><path d="m109531 28226h-238l-24 238 24-24 47-24h119l48 24 24 24 24 47v119l-24 48-24 24-48 24h-119l-47-24-24-24"/><path d="m109769 28535h381"/><path d="m110364 28273 24-24 47-23h120l47 23 24 24 24 48v47l-24 72-286 286h310"/><path d="m110959 28226h48l48 23 23 24 24 48 24 95v119l-24 95-24 48-23 24-48 24h-48l-47-24-24-24-24-48-24-95v-119l24-95 24-48 24-24z"/><path d="m111340 28726v-500h191l47 23 24 24 24 48v71l-24 48-24 24-47 23h-191"/></g></g></g><g fill="#006464" stroke="#006464"><path d="m1783.156 9904h2000v800h-2000z" fill="none" stroke="#840000" stroke-width="100"/><g fill-opacity="0" stroke-width="60" transform="translate(-13216.844 -11696)"><g fill="#840000" stroke="#840000"><path d="m15000 22000h-500"/><path d="m17000 22000h500"/></g><g fill="#006464" stroke="#006464"><text font-size="666.654" lengthAdjust="spacingAndGlyphs" opacity="0" text-anchor="middle" textLength="1036.1812" x="15999.961" y="19750">R1</text><path d="m15916 19726-167-238"/><path d="m15630 19726v-500h191l47 24 24 23 24 48v71l-24 48-24 24-47 24h-191"/><path d="m16392 19726h-285"/><path d="m16249 19726v-500l-47 71-48 48-47 24"/><text font-size="666.654" lengthAdjust="spacingAndGlyphs" opacity="0" text-anchor="middle" textLength="1417.126" x="15999.961" y="20750">22k</text><path d="m15416 20273 24-23 48-24h119l47 24 24 23 24 48v48l-24 71-286 286h310"/><path d="m15892 20273 24-23 48-24h119l47 24 24 23 24 48v48l-24 71-286 286h310"/><path d="m16392 20726v-500"/><path d="m16440 20535 143 191"/><path d="m16583 20392-191 191"/></g></g></g><g fill="#006464" stroke="#006464"><path d="m20383.156 19304h800v2000h-800z" fill="none" stroke="#840000" stroke-width="100"/><g fill-opacity="0" stroke-width="60" transform="translate(-13216.844 -11696)"><g fill="#840000" stroke="#840000"><path d="m35000 31400v-400h-400 400l-1800 1800" fill="none" stroke="#840000" stroke-linecap="round" stroke-linejoin="round" stroke-width="60"/><path d="m34000 31000v-500"/><path d="m34000 33000v500"/></g><g fill="#006464" stroke="#006464"><text font-size="666.654" lengthAdjust="spacingAndGlyphs" opacity="0" text-anchor="middle" textLength="1036.1812" x="36019.332" y="31749.922">R6</text><path d="m35935 31726-166-239"/><path d="m35650 31726v-500h190l48 23 24 24 23 48v71l-23 48-24 24-48 23h-190"/><path d="m36364 31226h-95l-48 23-24 24-47 72-24 95v190l24 48 24 24 47 24h95l48-24 24-24 24-48v-119l-24-47-24-24-48-24h-95l-47 24-24 24-24 47"/><text font-size="666.654" lengthAdjust="spacingAndGlyphs" opacity="0" text-anchor="middle" textLength="3964.7637" x="37483.621" y="32749.922">R_Variable</text><path d="m35935 32726-166-239"/><path d="m35650 32726v-500h190l48 23 24 24 23 48v71l-23 48-24 24-48 23h-190"/><path d="m36031 32773h381"/><path d="m36459 32226 167 500 167-500"/><path d="m37174 32726v-262l-24-48-48-24h-95l-48 24"/><path d="m37174 32702-48 24h-119l-48-24-24-48v-47l24-48 48-24h119l48-24"/><path d="m37412 32726v-334"/><path d="m37412 32487 23-47 24-24 48-24h48"/><path d="m37721 32726v-334"/><path d="m37721 32226-24 23 24 24 24-24-24-23v47"/><path d="m38174 32726v-262l-24-48-48-24h-95l-48 24"/><path d="m38174 32702-48 24h-119l-48-24-24-48v-47l24-48 48-24h119l48-24"/><path d="m38412 32726v-500"/><path d="m38412 32416 47-24h96l47 24 24 24 24 47v143l-24 48-24 24-47 24h-96l-47-24"/><path d="m38935 32726-47-24-24-48v-428"/><path d="m39316 32702-47 24h-95l-48-24-24-48v-190l24-48 48-24h95l47 24 24 48v47l-238 48"/></g></g></g><g fill="#006464" stroke="#006464"><path d="m14383.156 9304h800v2000h-800z" fill="none" stroke="#840000" stroke-width="100"/><g fill-opacity="0" stroke-width="60" transform="translate(-13216.844 -11696)"><g fill="#840000" stroke="#840000"><path d="m28000 21000v-500"/><path d="m28000 23000v500"/></g><g fill="#006464" stroke="#006464"><text font-size="666.654" lengthAdjust="spacingAndGlyphs" opacity="0" text-anchor="middle" textLength="1036.1812" x="29519.33" y="21749.922">R3</text><path d="m29435 21726-166-239"/><path d="m29150 21726v-500h190l48 23 24 24 23 48v71l-23 48-24 24-48 23h-190"/><path d="m29602 21226h310l-167 190h71l48 24 24 24 24 47v119l-24 48-24 24-48 24h-142l-48-24-24-24"/><text font-size="666.654" lengthAdjust="spacingAndGlyphs" opacity="0" text-anchor="middle" textLength="1417.126" x="29709.803" y="22749.922">10k</text><path d="m29412 22726h-286"/><path d="m29269 22726v-500l-48 71-47 48-48 23"/><path d="m29721 22226h48l47 23 24 24 24 48 24 95v119l-24 95-24 48-24 24-47 24h-48l-47-24-24-24-24-48-24-95v-119l24-95 24-48 24-24z"/><path d="m30102 22726v-500"/><path d="m30150 22535 143 191"/><path d="m30293 22392-191 191"/></g></g></g><g fill="#006464" stroke="#006464" transform="translate(-13216.844 -11696)"><path d="m78500 31500v500h500l-500 500-500-500h500" fill="none" stroke="#840000"/><g fill="#006464" fill-opacity="0" stroke="#006464"><text font-size="666.654" lengthAdjust="spacingAndGlyphs" opacity="0" text-anchor="middle" textLength="1583.8188" x="78500" y="33749.96100000001">GND</text><path d="m78119 33249-48-23h-71l-72 23-48 48-23 48-24 95v71l24 96 23 47 48 48 72 24h47l72-24 23-24v-167h-95"/><path d="m78357 33726v-500l285 500v-500"/><path d="m78880 33726v-500h120l71 23 48 48 23 48 24 95v71l-24 96-23 47-48 48-71 24z"/></g></g><g fill="#006464" stroke="#006464" transform="translate(-13216.844 -11696)"><path d="m77500 26000 4000 2000-4000 2000z" fill="#ffffc2" fill-opacity=".6" fill-rule="evenodd" stroke="#ffffc2" stroke-width=".03937"/><g fill="none" fill-opacity="0" stroke="#840000" stroke-width="100"><path d="m77500 26000 4000 2000-4000 2000z"/><path d="m77500 26000 4000 2000-4000 2000z"/></g><g stroke-width="60"><path d="m77500 27000h-1000" fill="none" stroke="#840000"/><g fill="#006464" fill-opacity="0" stroke="#006464"><text font-size="666.654" lengthAdjust="spacingAndGlyphs" opacity="0" textLength="679.05511" x="77550" y="27250">+</text><path d="m77699 27035h381"/><path d="m77889 27226v-381"/></g><g fill="#a90000" fill-opacity="0" stroke="#a90000"><text font-size="666.654" lengthAdjust="spacingAndGlyphs" opacity="0" text-anchor="middle" textLength="1012.3622" x="77000" y="26900">10</text><path d="m76904 26876h-285"/><path d="m76761 26876v-500l-47 71-48 48-47 24"/><path d="m77214 26376h47l48 24 24 23 24 48 23 95v119l-23 95-24 48-24 24-48 24h-47l-48-24-24-24-23-48-24-95v-119l24-95 23-48 24-23z"/></g><path d="m81500 28000h1000" fill="none" stroke="#840000"/><g fill="#a90000" fill-opacity="0" stroke="#a90000"><text font-size="666.654" lengthAdjust="spacingAndGlyphs" opacity="0" text-anchor="middle" textLength="536.18109" x="82000" y="27900">8</text><path d="m81952 27590-48-24-24-24-23-47v-24l23-48 24-23 48-24h95l48 24 24 23 23 48v24l-23 47-24 24-48 24h-95l-48 24-24 24-23 47v95l23 48 24 24 48 24h95l48-24 24-24 23-48v-95l-23-47-24-24-48-24"/></g><path d="m77500 29000h-1000" fill="none" stroke="#840000"/><g fill="#006464" fill-opacity="0" stroke="#006464"><text font-size="666.654" lengthAdjust="spacingAndGlyphs" opacity="0" textLength="679.05511" x="77550" y="29250">-</text><path d="m77699 29035h381"/></g><g fill="#a90000" fill-opacity="0" stroke="#a90000"><text font-size="666.654" lengthAdjust="spacingAndGlyphs" opacity="0" text-anchor="middle" textLength="536.18109" x="77000" y="28900">9</text><path d="m76904 28876h96l47-24 24-24 48-71 23-96v-190l-23-48-24-23-48-24h-95l-48 24-24 23-23 48v119l23 48 24 23 48 24h95l48-24 24-23 23-48"/></g><g fill="#006464" fill-opacity="0" stroke="#006464"><text font-size="666.654" lengthAdjust="spacingAndGlyphs" opacity="0" text-anchor="middle" textLength="1560" x="81000" y="25249.961">U1C</text><path d="m80369 24726v404l23 48 24 24 48 24h95l48-24 23-24 24-48v-404"/><path d="m81154 25226h-285"/><path d="m81011 25226v-500l-47 71-48 48-47 23"/><path d="m81654 25178-24 24-71 24h-48l-71-24-48-48-23-47-24-96v-71l24-95 23-48 48-48 71-23h48l71 23 24 24"/><text font-size="666.654" lengthAdjust="spacingAndGlyphs" opacity="0" text-anchor="middle" textLength="2464.7637" x="81000" y="26249.961">LM324</text><path d="m80154 26226h-238v-500"/><path d="m80321 26226v-500l167 357 166-357v500"/><path d="m80845 25726h309l-166 190h71l48 24 23 24 24 47v119l-24 48-23 24-48 24h-143l-47-24-24-24"/><path d="m81345 25773 24-24 47-23h119l48 23 24 24 23 48v47l-23 72-286 286h309"/><path d="m82059 25892v334"/><path d="m81940 25702-119 357h309"/></g><g fill="#840084" fill-opacity="0" stroke="#840084"><text font-size="666.654" lengthAdjust="spacingAndGlyphs" opacity="0" text-anchor="middle" textLength="7179.0552" x="79500" y="34749.96100000001">Voltage Follower 3</text><path d="m75988 34226 166 500 167-500"/><path d="m76559 34726-48-24-23-24-24-48v-142l24-48 23-24 48-24h71l48 24 24 24 24 48v142l-24 48-24 24-48 24z"/><path d="m77011 34726-47-24-24-48v-428"/><path d="m77130 34392h191"/><path d="m77202 34226v428l24 48 47 24h48"/><path d="m77702 34726v-262l-24-48-48-24h-95l-47 24"/><path d="m77702 34702-48 24h-119l-47-24-24-48v-47l24-48 47-24h119l48-24"/><path d="m78154 34392v405l-24 48-23 23-48 24h-71l-48-24"/><path d="m78154 34702-47 24h-96l-47-24-24-24-24-48v-142l24-48 24-24 47-24h96l47 24"/><path d="m78583 34702-48 24h-95l-48-24-23-48v-190l23-48 48-24h95l48 24 24 48v47l-238 48"/><path d="m79369 34464h-167"/><path d="m79202 34726v-500h238"/><path d="m79702 34726-48-24-24-24-23-48v-142l23-48 24-24 48-24h71l48 24 24 24 24 48v142l-24 48-24 24-48 24z"/><path d="m80154 34726-47-24-24-48v-428"/><path d="m80416 34726-47-24-24-48v-428"/><path d="m80678 34726-48-24-23-24-24-48v-142l24-48 23-24 48-24h72l47 24 24 24 24 48v142l-24 48-24 24-47 24z"/><path d="m81011 34392 96 334 95-238 95 238 95-334"/><path d="m81773 34702-47 24h-96l-47-24-24-48v-190l24-48 47-24h96l47 24 24 48v47l-238 48"/><path d="m82011 34726v-334"/><path d="m82011 34488 24-48 24-24 48-24h47"/><path d="m82654 34226h310l-167 190h72l47 24 24 24 24 47v119l-24 48-24 24-47 24h-143l-48-24-24-24"/></g></g></g><g fill="#840000" stroke="#840000" transform="translate(-13216.844 -11696)"><text font-size="666.654" lengthAdjust="spacingAndGlyphs" opacity="0" textLength="5893.3467" x="19062.52" y="22285.748">BRIDGE_ENABLE</text><path d="m19378 22000 71 23 24 24 24 48v71l-24 48-24 24-47 23h-191v-500h167l47 24 24 24 24 48v47l-24 48-24 24-47 24h-167"/><path d="m19997 22261-167-238"/><path d="m19711 22261v-500h191l47 24 24 24 24 48v71l-24 48-24 24-47 23h-191"/><path d="m20211 22261v-500"/><path d="m20449 22261v-500h119l72 24 47 48 24 47 24 96v71l-24 95-24 48-47 48-72 23z"/><path d="m21211 21785-48-24h-71l-71 24-48 48-24 47-24 96v71l24 95 24 48 48 48 71 23h48l71-23 24-24v-167h-95"/><path d="m21449 22000h167"/><path d="m21687 22261h-238v-500h238"/><path d="m21782 22309h381"/><path d="m22282 22000h167"/><path d="m22521 22261h-239v-500h239"/><path d="m22735 22261v-500l286 500v-500"/><path d="m23235 22119h238"/><path d="m23187 22261 167-500 167 500"/><path d="m23854 22000 71 23 24 24 24 48v71l-24 48-24 24-47 23h-191v-500h167l48 24 23 24 24 48v47l-24 48-23 24-48 24h-167"/><path d="m24425 22261h-238v-500"/><path d="m24592 22000h167"/><path d="m24830 22261h-238v-500h238"/><path d="m18500 22000 437.52 500.157h6333.543v-500.157-500.157h-6333.543z" fill="none" stroke="#840000" stroke-linecap="round" stroke-linejoin="round" stroke-width="60"/></g><g fill="#840000" stroke="#840000" transform="translate(-13216.844 -11696)"><text font-size="666.654" lengthAdjust="spacingAndGlyphs" opacity="0" textLength="3633.937" x="35062.52" y="27285.748">BRIDGE_B</text><path d="m35378 27000 71 23 24 24 24 48v71l-24 48-24 24-47 23h-191v-500h167l47 24 24 24 24 48v47l-24 48-24 24-47 24h-167"/><path d="m35997 27261-167-238"/><path d="m35711 27261v-500h191l47 24 24 24 24 48v71l-24 48-24 24-47 23h-191"/><path d="m36211 27261v-500"/><path d="m36449 27261v-500h119l72 24 47 48 24 47 24 96v71l-24 95-24 48-47 48-72 23z"/><path d="m37211 26785-48-24h-71l-71 24-48 48-24 47-24 96v71l24 95 24 48 48 48 71 23h48l71-23 24-24v-167h-95"/><path d="m37449 27000h167"/><path d="m37687 27261h-238v-500h238"/><path d="m37782 27309h381"/><path d="m38449 27000 72 23 23 24 24 48v71l-24 48-23 24-48 23h-191v-500h167l48 24 24 24 23 48v47l-23 48-24 24-48 24h-167"/><path d="m34500 27000 437.52 500.157h4071.614v-500.157-500.157h-4071.614z" fill="none" stroke="#840000" stroke-linecap="round" stroke-linejoin="round" stroke-width="60"/></g><g fill="#840000" stroke="#840000" transform="translate(-13216.844 -11696)"><text font-size="666.654" lengthAdjust="spacingAndGlyphs" opacity="0" text-anchor="end" textLength="5895.8662" x="93937.477" y="29285.748">BRIDGE_ENABLE</text><path d="m88359 29000 72 23 24 24 23 48v71l-23 48-24 24-48 23h-190v-500h166l48 24 24 24 24 48v47l-24 48-24 24-48 24h-166"/><path d="m88978 29261-166-238"/><path d="m88693 29261v-500h190l48 24 24 24 23 48v71l-23 48-24 24-48 23h-190"/><path d="m89193 29261v-500"/><path d="m89431 29261v-500h119l71 24 48 48 24 47 23 96v71l-23 95-24 48-48 48-71 23z"/><path d="m90193 28785-48-24h-71l-72 24-47 48-24 47-24 96v71l24 95 24 48 47 48 72 23h47l72-23 23-24v-167h-95"/><path d="m90431 29000h166"/><path d="m90669 29261h-238v-500h238"/><path d="m90764 29309h381"/><path d="m91264 29000h167"/><path d="m91502 29261h-238v-500h238"/><path d="m91716 29261v-500l286 500v-500"/><path d="m92216 29119h239"/><path d="m92169 29261 167-500 166 500"/><path d="m92836 29000 71 23 24 24 24 48v71l-24 48-24 24-48 23h-190v-500h167l47 24 24 24 24 48v47l-24 48-24 24-47 24h-167"/><path d="m93407 29261h-238v-500"/><path d="m93574 29000h166"/><path d="m93812 29261h-238v-500h238"/><path d="m94500 29000-437.52-500.157h-6333.54300000001v500.157 500.157h6333.54300000001z" fill="none" stroke="#840000" stroke-linecap="round" stroke-linejoin="round" stroke-width="60"/></g><g fill="#840000" stroke="#840000" transform="translate(-13216.844 -11696)"><text font-size="666.654" lengthAdjust="spacingAndGlyphs" opacity="0" textLength="1491.1024" x="84562.523" y="28285.748">ADC</text><path d="m84687 28119h238"/><path d="m84640 28261 166-500 167 500"/><path d="m85140 28261v-500h119l71 24 48 48 24 47 23 96v71l-23 95-24 48-48 48-71 23z"/><path d="m85925 28214-23 24-72 23h-48l-71-23-48-48-23-48-24-95v-71l24-96 23-47 48-48 71-24h48l72 24 23 24"/><path d="m84000 28000 437.52 500.157h1928.779v-500.157-500.157h-1928.779z" fill="none" stroke="#840000" stroke-linecap="round" stroke-linejoin="round" stroke-width="60"/></g><g fill="#840000" stroke="#840000" transform="translate(-13216.844 -11696)"><text font-size="666.654" lengthAdjust="spacingAndGlyphs" opacity="0" text-anchor="end" textLength="3562.5198" x="26937.48" y="27285.748">BRIDGE_A</text><path d="m23693 27000 71 23 24 24 24 48v71l-24 48-24 24-48 23h-190v-500h167l47 24 24 24 24 48v47l-24 48-24 24-47 24h-167"/><path d="m24312 27261-167-238"/><path d="m24026 27261v-500h190l48 24 24 24 24 48v71l-24 48-24 24-48 23h-190"/><path d="m24526 27261v-500"/><path d="m24764 27261v-500h119l72 24 47 48 24 47 24 96v71l-24 95-24 48-47 48-72 23z"/><path d="m25526 26785-48-24h-71l-71 24-48 48-24 47-24 96v71l24 95 24 48 48 48 71 23h48l71-23 24-24v-167h-95"/><path d="m25764 27000h167"/><path d="m26002 27261h-238v-500h238"/><path d="m26097 27309h381"/><path d="m26574 27119h238"/><path d="m26526 27261 167-500 166 500"/><path d="m27500 27000-437.52-500.157h-4000.197v500.157 500.157h4000.197z" fill="none" stroke="#840000" stroke-linecap="round" stroke-linejoin="round" stroke-width="60"/></g><g fill="#840000" stroke="#840000" transform="translate(-13216.844 -11696)"><text font-size="666.654" lengthAdjust="spacingAndGlyphs" opacity="0" text-anchor="end" textLength="1491.1024" x="93937.477" y="28285.748">ADC</text><path d="m92574 28119h238"/><path d="m92526 28261 167-500 166 500"/><path d="m93026 28261v-500h119l71 24 48 48 24 47 24 96v71l-24 95-24 48-48 48-71 23z"/><path d="m93812 28214-24 24-72 23h-47l-72-23-47-48-24-48-24-95v-71l24-96 24-47 47-48 72-24h47l72 24 24 24"/><path d="m94500 28000-437.52-500.157h-1928.779v500.157 500.157h1928.779z" fill="none" stroke="#840000" stroke-linecap="round" stroke-linejoin="round" stroke-width="60"/></g><g fill="#840000" stroke="#840000" transform="translate(-13216.844 -11696)"><text font-size="666.654" lengthAdjust="spacingAndGlyphs" opacity="0" text-anchor="end" textLength="3562.5198" x="45937.48" y="21785.748">BRIDGE_A</text><path d="m42693 21500 71 23 24 24 24 48v71l-24 48-24 24-48 23h-190v-500h167l47 24 24 24 24 48v47l-24 48-24 24-47 24h-167"/><path d="m43312 21761-167-238"/><path d="m43026 21761v-500h190l48 24 24 24 24 48v71l-24 48-24 24-48 23h-190"/><path d="m43526 21761v-500"/><path d="m43764 21761v-500h119l72 24 47 48 24 47 24 96v71l-24 95-24 48-47 48-72 23z"/><path d="m44526 21285-48-24h-71l-71 24-48 48-24 47-24 96v71l24 95 24 48 48 48 71 23h48l71-23 24-24v-167h-95"/><path d="m44764 21500h167"/><path d="m45002 21761h-238v-500h238"/><path d="m45097 21809h381"/><path d="m45574 21619h238"/><path d="m45526 21761 167-500 166 500"/><path d="m46500 21500-437.52-500.157h-4000.197v500.157 500.157h4000.197z" fill="none" stroke="#840000" stroke-linecap="round" stroke-linejoin="round" stroke-width="60"/></g><g fill="#840000" stroke="#840000" transform="translate(-13216.844 -11696)"><text font-size="666.654" lengthAdjust="spacingAndGlyphs" opacity="0" text-anchor="end" textLength="3633.937" x="45937.48" y="32785.746">BRIDGE_B</text><path d="m42621 32500 72 23 23 24 24 48v71l-24 48-23 24-48 23h-190v-500h166l48 24 24 24 23 48v47l-23 48-24 24-48 24h-166"/><path d="m43240 32761-166-238"/><path d="m42955 32761v-500h190l48 24 23 24 24 48v71l-24 48-23 24-48 23h-190"/><path d="m43455 32761v-500"/><path d="m43693 32761v-500h119l71 24 48 48 24 47 23 96v71l-23 95-24 48-48 48-71 23z"/><path d="m44455 32285-48-24h-71l-72 24-48 48-23 47-24 96v71l24 95 23 48 48 48 72 23h47l72-23 23-24v-167h-95"/><path d="m44693 32500h166"/><path d="m44931 32761h-238v-500h238"/><path d="m45026 32809h381"/><path d="m45693 32500 71 23 24 24 24 48v71l-24 48-24 24-48 23h-190v-500h167l47 24 24 24 24 48v47l-24 48-24 24-47 24h-167"/><path d="m46500 32500-437.52-500.157h-4071.614v500.157 500.157h4071.614z" fill="none" stroke="#840000" stroke-linecap="round" stroke-linejoin="round" stroke-width="60"/></g><g fill="#840000" stroke="#840000" transform="translate(-13216.844 -11696)"><text font-size="666.654" lengthAdjust="spacingAndGlyphs" opacity="0" text-anchor="end" textLength="1467.2834" x="93937.477" y="25285.748">SDA</text><path d="m92597 25238 72 23h119l48-23 23-24 24-48v-47l-24-48-23-24-48-24-95-23-48-24-24-24-24-48v-47l24-48 24-24 48-24h119l71 24"/><path d="m93097 25261v-500h119l72 24 48 48 23 47 24 96v71l-24 95-23 48-48 48-72 23z"/><path d="m93574 25119h238"/><path d="m93526 25261 167-500 166 500"/><path d="m94500 25000-437.52-500.157h-1904.96000000001v500.157 500.157h1904.96000000001z" fill="none" stroke="#840000" stroke-linecap="round" stroke-linejoin="round" stroke-width="60"/></g><g fill="#840000" stroke="#840000" transform="translate(-13216.844 -11696)"><text font-size="666.654" lengthAdjust="spacingAndGlyphs" opacity="0" text-anchor="end" textLength="1538.7008" x="93937.477" y="27285.748">SCK</text><path d="m92526 27238 71 23h119l48-23 24-24 24-48v-47l-24-48-24-24-48-24-95-23-47-24-24-24-24-48v-47l24-48 24-24 47-24h119l72 24"/><path d="m93312 27214-24 24-72 23h-47l-72-23-47-48-24-48-24-95v-71l24-96 24-47 47-48 72-24h47l72 24 24 24"/><path d="m93526 27261v-500"/><path d="m93812 27261-215-285"/><path d="m93812 26761-286 286"/><path d="m94500 27000-437.52-500.157h-1976.378v500.157 500.157h1976.378z" fill="none" stroke="#840000" stroke-linecap="round" stroke-linejoin="round" stroke-width="60"/></g><g fill="#009600" stroke="#009600" transform="translate(-13216.844 -11696)"><path d="m101000 21500v500"/><path d="m94500 25000h500"/><path d="m94500 27000h500"/><path d="m94500 28000h500"/><path d="m18000 22000h500"/><path d="m14000 22000v500"/><path d="m101000 34000v500"/><path d="m94500 29000h500"/><path d="m20000 15000h11000"/><path d="m31000 15000v4000"/><path d="m78500 31000v500"/><path d="m27500 27000h500"/><path d="m75500 33000h8000"/><path d="m28000 23500v3500"/><path d="m28000 27000v3500"/><path d="m78500 24500v500"/><path d="m17500 22000h500"/><path d="m14500 22000h-500"/><path d="m18000 21500v500"/><path d="m34000 27000v3500"/><path d="m75500 29000v4000"/><path d="m31000 34500v-500"/><path d="m34000 27000h500"/><path d="m76500 29000h-1000"/><path d="m34000 33500v500"/><path d="m31000 34000h3000"/><path d="m83500 28000h500"/><path d="m34000 23500v3500"/><path d="m34000 20500v-1500"/><path d="m31000 19000h-3000"/><path d="m28000 19000v1500"/><path d="m31000 19000h3000"/><path d="m83500 28000v5000"/><path d="m63000 28000v1500"/><path d="m28000 34000v-500"/><path d="m31000 34000h-3000"/><path d="m18000 18000v500"/><path d="m63000 28000h1000"/><path d="m15000 15000h1000"/><path d="m15000 14000v1000"/><path d="m62000 28000h1000"/><path d="m46000 23500v2500"/><path d="m54000 22500h-1000"/><path d="m54000 22500v3500"/><path d="m46000 26000h8000"/><path d="m47000 23500h-1000"/><path d="m65000 21500h-2000"/><path d="m63000 21500v4500"/><path d="m46500 21500h500"/><path d="m46000 30500v-2500"/><path d="m47000 30500h-1000"/><path d="m54000 28000v3500"/><path d="m46000 28000h8000"/><path d="m53000 31500h1000"/><path d="m68000 21500h3000"/><path d="m71000 21500v5500"/><path d="m46500 32500h500"/><path d="m71000 27000h-1000"/><path d="m62000 26000h1000"/><path d="m63000 26000h1000"/><path d="m71000 27000h5500"/><path d="m83500 28000h-1000"/><path d="m63000 32500v500"/><path d="m54000 26000h5000"/><path d="m59000 28000h-5000"/></g></g><g fill="#009600" stroke="#009600"><circle cx="70283.156" cy="16304" r="180"/><circle cx="57783.156" cy="15304" r="180"/><circle cx="49783.156" cy="16304" r="180"/><circle cx="17783.156" cy="7304" r="180"/><circle cx="14783.156" cy="15304" r="180"/><circle cx="4783.156" cy="10304" r="180"/><circle cx="20783.156" cy="15304" r="180"/><circle cx="17783.156" cy="22304" r="180"/><circle cx="49783.156" cy="14304" r="180"/><circle cx="40783.15600000001" cy="14304" r="180"/><circle cx="40783.15600000001" cy="16304" r="180"/></g></g></svg>